<?xml version="1.0" standalone="yes"?>

<svg version="1.1" viewBox="0.0 0.0 1207.8005249343832 169.18897637795277" fill="none" stroke="none" stroke-linecap="square" stroke-miterlimit="10" xmlns="http://www.w3.org/2000/svg" xmlns:xlink="http://www.w3.org/1999/xlink"><clipPath id="p.0"><path d="m0 0l1207.8005 0l0 169.18898l-1207.8005 0l0 -169.18898z" clip-rule="nonzero"></path></clipPath><g clip-path="url(#p.0)"><path fill="#000000" fill-opacity="0.0" d="m0 0l1207.8005 0l0 169.18898l-1207.8005 0z" fill-rule="nonzero"></path><path fill="#666666" d="m183.25328 155.2336l150.80315 0l0 4.598419l-150.80315 0z" fill-rule="nonzero"></path><path stroke="#000000" stroke-width="1.0" stroke-linejoin="round" stroke-linecap="butt" d="m183.25328 155.2336l150.80315 0l0 4.598419l-150.80315 0z" fill-rule="nonzero"></path><path fill="#f3f3f3" d="m195.17627 106.509186l126.96063 0l0 36.850388l-126.96063 0z" fill-rule="nonzero"></path><path stroke="#000000" stroke-width="1.0" stroke-linejoin="round" stroke-linecap="butt" d="m195.17627 106.509186l126.96063 0l0 36.850388l-126.96063 0z" fill-rule="nonzero"></path><path fill="#000000" d="m234.12741 120.85813q-1.015625 -0.21875 -1.734375 -0.21875q-1.71875 0 -1.71875 1.796875l0 1.296875l3.21875 0l0 1.0625l-3.21875 0l0 5.2187576l-1.296875 0l0 -5.2187576l-2.359375 0l0 -1.0625l2.359375 0l0 -1.21875q0 -2.9375 3.0625 -2.9375q0.765625 0 1.6875 0.171875l0 1.109375zm-7.703125 1.796875l0 0zm13.9487 7.3593826l-0.03125 -0.984375q-0.59375 0.59375 -1.21875 0.859375q-0.609375 0.25 -1.296875 0.25q-0.625 0 -1.078125 -0.15625q-0.4375 -0.15625 -0.734375 -0.4375q-0.28125 -0.28125 -0.421875 -0.65625q-0.140625 -0.390625 -0.140625 -0.84375q0 -1.0937576 0.828125 -1.7187576q0.828125 -0.640625 2.4375 -0.640625l1.515625 0l0 -0.640625q0 -0.65625 -0.421875 -1.046875q-0.40625 -0.390625 -1.265625 -0.390625q-0.625 0 -1.234375 0.140625q-0.59375 0.140625 -1.234375 0.40625l0 -1.15625q0.234375 -0.09375 0.53125 -0.171875q0.296875 -0.078125 0.625 -0.140625q0.328125 -0.078125 0.6875 -0.109375q0.359375 -0.046875 0.734375 -0.046875q0.65625 0 1.1875 0.15625q0.546875 0.140625 0.90625 0.4375q0.375 0.296875 0.5625 0.75q0.203125 0.453125 0.203125 1.078125l0 5.0625076l-1.140625 0zm-0.140625 -3.3437576l-1.609375 0q-0.484375 0 -0.828125 0.09375q-0.34375 0.09375 -0.5625 0.265625q-0.21875 0.171875 -0.328125 0.421875q-0.09375 0.25 -0.09375 0.5625076q0 0.203125 0.0625 0.40625q0.0625 0.1875 0.203125 0.34375q0.15625 0.140625 0.390625 0.234375q0.234375 0.078125 0.5625 0.078125q0.4375 0 1.0 -0.265625q0.578125 -0.265625 1.203125 -0.8437576l0 -1.296875zm9.1987 3.0781326q-0.5 0.1875 -1.03125 0.28125q-0.515625 0.09375 -1.078125 0.09375q-1.734375 0 -2.6875 -0.9375q-0.9375 -0.953125 -0.9375 -2.7812576q0 -0.859375 0.265625 -1.5625q0.28125 -0.71875 0.765625 -1.21875q0.5 -0.515625 1.171875 -0.78125q0.6875 -0.28125 1.5 -0.28125q0.578125 0 1.078125 0.078125q0.5 0.078125 0.953125 0.265625l0 1.21875q-0.484375 -0.25 -0.984375 -0.359375q-0.484375 -0.125 -1.015625 -0.125q-0.484375 0 -0.921875 0.1875q-0.4375 0.1875 -0.765625 0.546875q-0.328125 0.34375 -0.53125 0.859375q-0.1875 0.5 -0.1875 1.140625q0 1.328125 0.640625 2.0000076q0.65625 0.65625 1.8125 0.65625q0.515625 0 1.0 -0.109375q0.5 -0.125 0.953125 -0.359375l0 1.1875zm8.2612 0.15625q-0.421875 0.109375 -0.890625 0.15625q-0.453125 0.0625 -0.9375 0.0625q-1.390625 0 -2.078125 -0.625q-0.671875 -0.640625 -0.671875 -1.9375076l0 -3.828125l-2.046875 0l0 -1.078125l2.046875 0l0 -2.015625l1.28125 -0.328125l0 2.34375l3.296875 0l0 1.078125l-3.296875 0l0 3.734375q0 0.7812576 0.421875 1.1875076q0.421875 0.390625 1.234375 0.390625q0.359375 0 0.765625 -0.046875q0.421875 -0.0625 0.875 -0.1875l0 1.09375zm6.54245 3.1875q-3.375 -3.125 -3.375 -6.9218826q0 -0.875 0.171875 -1.75q0.1875 -0.890625 0.578125 -1.78125q0.40625 -0.890625 1.0625 -1.765625q0.65625 -0.890625 1.59375 -1.765625l0.734375 0.75q-2.84375 2.8125 -2.84375 6.21875q0 1.703125 0.71875 3.2812576q0.71875 1.5625 2.125 2.953125l-0.765625 0.78125zm9.683075 -5.9843826q0 0.625 -0.265625 1.1875076q-0.25 0.546875 -0.765625 0.96875q-0.515625 0.40625 -1.296875 0.640625q-0.765625 0.234375 -1.796875 0.234375q-0.578125 0 -1.03125 -0.03125q-0.453125 -0.03125 -0.84375 -0.09375l0 -1.140625q0.453125 0.078125 0.953125 0.125q0.515625 0.046875 1.03125 0.046875q0.71875 0 1.21875 -0.125q0.515625 -0.140625 0.84375 -0.375q0.328125 -0.25 0.46875 -0.5937576q0.140625 -0.34375 0.140625 -0.765625q0 -0.40625 -0.171875 -0.6875q-0.171875 -0.296875 -0.5 -0.5q-0.3125 -0.203125 -0.765625 -0.296875q-0.4375 -0.09375 -0.953125 -0.09375l-1.09375 0l0 -1.046875l1.109375 0q0.421875 0 0.78125 -0.109375q0.359375 -0.125 0.609375 -0.328125q0.25 -0.21875 0.375 -0.53125q0.140625 -0.3125 0.140625 -0.703125q0 -0.765625 -0.46875 -1.109375q-0.46875 -0.359375 -1.375 -0.359375q-0.484375 0 -1.0 0.09375q-0.5 0.09375 -1.09375 0.28125l0 -1.109375q0.25 -0.09375 0.53125 -0.15625q0.28125 -0.078125 0.5625 -0.125q0.28125 -0.046875 0.5625 -0.0625q0.28125 -0.03125 0.53125 -0.03125q0.765625 0 1.34375 0.171875q0.578125 0.15625 0.96875 0.46875q0.390625 0.296875 0.578125 0.75q0.203125 0.4375 0.203125 0.984375q0 0.8125 -0.421875 1.375q-0.421875 0.5625 -1.15625 0.890625q0.375 0.046875 0.734375 0.234375q0.375 0.171875 0.65625 0.453125q0.296875 0.265625 0.46875 0.640625q0.1875 0.375 0.1875 0.828125zm3.526825 -8.0q3.375 3.125 3.375 6.953125q0 0.796875 -0.15625 1.65625q-0.15625 0.8437576 -0.546875 1.7343826q-0.390625 0.890625 -1.046875 1.796875q-0.65625 0.921875 -1.65625 1.84375l-0.734375 -0.75q1.421875 -1.421875 2.125 -2.953125q0.703125 -1.5468826 0.703125 -3.2343826q0 -3.484375 -2.828125 -6.265625l0.765625 -0.78125zm7.214325 12.406258q0.375 0.015625 0.71875 -0.0625q0.359375 -0.078125 0.625 -0.234375q0.265625 -0.15625 0.421875 -0.390625q0.171875 -0.234375 0.171875 -0.546875q0 -0.296875 -0.109375 -0.484375q-0.109375 -0.203125 -0.25 -0.359375q-0.125 -0.15625 -0.234375 -0.34375q-0.09375 -0.1875 -0.09375 -0.484375q0 -0.15625 0.046875 -0.328125q0.0625 -0.171875 0.1875 -0.31250763q0.125 -0.140625 0.3125 -0.21875q0.1875 -0.09375 0.4375 -0.09375q0.265625 0 0.5 0.109375q0.234375 0.109375 0.40625 0.32813263q0.1875 0.21875 0.296875 0.546875q0.109375 0.328125 0.109375 0.78125q0 0.59375 -0.234375 1.15625q-0.21875 0.5625 -0.671875 1.0q-0.4375 0.4375 -1.109375 0.6875q-0.65625 0.25 -1.53125 0.25l0 -1.0zm2.296875 -8.984383q0.21875 0 0.421875 0.09375q0.21875 0.09375 0.359375 0.25q0.15625 0.140625 0.25 0.359375q0.09375 0.203125 0.09375 0.421875q0 0.234375 -0.09375 0.4375q-0.09375 0.203125 -0.25 0.359375q-0.140625 0.15625 -0.359375 0.25q-0.203125 0.078125 -0.421875 0.078125q-0.234375 0 -0.4375 -0.078125q-0.203125 -0.09375 -0.359375 -0.25q-0.15625 -0.15625 -0.25 -0.359375q-0.078125 -0.203125 -0.078125 -0.4375q0 -0.21875 0.078125 -0.421875q0.09375 -0.21875 0.25 -0.359375q0.15625 -0.15625 0.359375 -0.25q0.203125 -0.09375 0.4375 -0.09375z" fill-rule="nonzero"></path><path fill="#666666" d="m530.98016 155.2336l150.8031 0l0 4.598419l-150.8031 0z" fill-rule="nonzero"></path><path stroke="#000000" stroke-width="1.0" stroke-linejoin="round" stroke-linecap="butt" d="m530.98016 155.2336l150.8031 0l0 4.598419l-150.8031 0z" fill-rule="nonzero"></path><path fill="#f3f3f3" d="m542.90314 106.509186l126.96063 0l0 36.850388l-126.96063 0z" fill-rule="nonzero"></path><path stroke="#000000" stroke-width="1.0" stroke-linejoin="round" stroke-linecap="butt" d="m542.90314 106.509186l126.96063 0l0 36.850388l-126.96063 0z" fill-rule="nonzero"></path><path fill="#000000" d="m581.85425 120.85813q-1.015625 -0.21875 -1.734375 -0.21875q-1.71875 0 -1.71875 1.796875l0 1.296875l3.21875 0l0 1.0625l-3.21875 0l0 5.2187576l-1.296875 0l0 -5.2187576l-2.359375 0l0 -1.0625l2.359375 0l0 -1.21875q0 -2.9375 3.0625 -2.9375q0.765625 0 1.6875 0.171875l0 1.109375zm-7.703125 1.796875l0 0zm13.94873 7.3593826l-0.03125 -0.984375q-0.59375 0.59375 -1.21875 0.859375q-0.609375 0.25 -1.296875 0.25q-0.625 0 -1.078125 -0.15625q-0.4375 -0.15625 -0.734375 -0.4375q-0.28125 -0.28125 -0.421875 -0.65625q-0.140625 -0.390625 -0.140625 -0.84375q0 -1.0937576 0.828125 -1.7187576q0.828125 -0.640625 2.4375 -0.640625l1.515625 0l0 -0.640625q0 -0.65625 -0.421875 -1.046875q-0.40625 -0.390625 -1.265625 -0.390625q-0.625 0 -1.234375 0.140625q-0.59375 0.140625 -1.234375 0.40625l0 -1.15625q0.234375 -0.09375 0.53125 -0.171875q0.296875 -0.078125 0.625 -0.140625q0.328125 -0.078125 0.6875 -0.109375q0.359375 -0.046875 0.734375 -0.046875q0.65625 0 1.1875 0.15625q0.546875 0.140625 0.90625 0.4375q0.375 0.296875 0.5625 0.75q0.203125 0.453125 0.203125 1.078125l0 5.0625076l-1.140625 0zm-0.140625 -3.3437576l-1.609375 0q-0.484375 0 -0.828125 0.09375q-0.34375 0.09375 -0.5625 0.265625q-0.21875 0.171875 -0.328125 0.421875q-0.09375 0.25 -0.09375 0.5625076q0 0.203125 0.0625 0.40625q0.0625 0.1875 0.203125 0.34375q0.15625 0.140625 0.390625 0.234375q0.234375 0.078125 0.5625 0.078125q0.4375 0 1.0 -0.265625q0.578125 -0.265625 1.203125 -0.8437576l0 -1.296875zm9.198669 3.0781326q-0.5 0.1875 -1.03125 0.28125q-0.515625 0.09375 -1.078125 0.09375q-1.734375 0 -2.6875 -0.9375q-0.9375 -0.953125 -0.9375 -2.7812576q0 -0.859375 0.265625 -1.5625q0.28125 -0.71875 0.765625 -1.21875q0.5 -0.515625 1.171875 -0.78125q0.6875 -0.28125 1.5 -0.28125q0.578125 0 1.078125 0.078125q0.5 0.078125 0.953125 0.265625l0 1.21875q-0.484375 -0.25 -0.984375 -0.359375q-0.484375 -0.125 -1.015625 -0.125q-0.484375 0 -0.921875 0.1875q-0.4375 0.1875 -0.765625 0.546875q-0.328125 0.34375 -0.53125 0.859375q-0.1875 0.5 -0.1875 1.140625q0 1.328125 0.640625 2.0000076q0.65625 0.65625 1.8125 0.65625q0.515625 0 1.0 -0.109375q0.5 -0.125 0.953125 -0.359375l0 1.1875zm8.26123 0.15625q-0.421875 0.109375 -0.890625 0.15625q-0.453125 0.0625 -0.9375 0.0625q-1.390625 0 -2.078125 -0.625q-0.671875 -0.640625 -0.671875 -1.9375076l0 -3.828125l-2.046875 0l0 -1.078125l2.046875 0l0 -2.015625l1.28125 -0.328125l0 2.34375l3.296875 0l0 1.078125l-3.296875 0l0 3.734375q0 0.7812576 0.421875 1.1875076q0.421875 0.390625 1.234375 0.390625q0.359375 0 0.765625 -0.046875q0.421875 -0.0625 0.875 -0.1875l0 1.09375zm6.5424194 3.1875q-3.375 -3.125 -3.375 -6.9218826q0 -0.875 0.171875 -1.75q0.1875 -0.890625 0.578125 -1.78125q0.40625 -0.890625 1.0625 -1.765625q0.65625 -0.890625 1.59375 -1.765625l0.734375 0.75q-2.84375 2.8125 -2.84375 6.21875q0 1.703125 0.71875 3.2812576q0.71875 1.5625 2.125 2.953125l-0.765625 0.78125zm9.683105 -5.9843826q0 0.625 -0.265625 1.1875076q-0.25 0.546875 -0.765625 0.96875q-0.515625 0.40625 -1.296875 0.640625q-0.765625 0.234375 -1.796875 0.234375q-0.578125 0 -1.03125 -0.03125q-0.453125 -0.03125 -0.84375 -0.09375l0 -1.140625q0.453125 0.078125 0.953125 0.125q0.515625 0.046875 1.03125 0.046875q0.71875 0 1.21875 -0.125q0.515625 -0.140625 0.84375 -0.375q0.328125 -0.25 0.46875 -0.5937576q0.140625 -0.34375 0.140625 -0.765625q0 -0.40625 -0.171875 -0.6875q-0.171875 -0.296875 -0.5 -0.5q-0.3125 -0.203125 -0.765625 -0.296875q-0.4375 -0.09375 -0.953125 -0.09375l-1.09375 0l0 -1.046875l1.109375 0q0.421875 0 0.78125 -0.109375q0.359375 -0.125 0.609375 -0.328125q0.25 -0.21875 0.375 -0.53125q0.140625 -0.3125 0.140625 -0.703125q0 -0.765625 -0.46875 -1.109375q-0.46875 -0.359375 -1.375 -0.359375q-0.484375 0 -1.0 0.09375q-0.5 0.09375 -1.09375 0.28125l0 -1.109375q0.25 -0.09375 0.53125 -0.15625q0.28125 -0.078125 0.5625 -0.125q0.28125 -0.046875 0.5625 -0.0625q0.28125 -0.03125 0.53125 -0.03125q0.765625 0 1.34375 0.171875q0.578125 0.15625 0.96875 0.46875q0.390625 0.296875 0.578125 0.75q0.203125 0.4375 0.203125 0.984375q0 0.8125 -0.421875 1.375q-0.421875 0.5625 -1.15625 0.890625q0.375 0.046875 0.734375 0.234375q0.375 0.171875 0.65625 0.453125q0.296875 0.265625 0.46875 0.640625q0.1875 0.375 0.1875 0.828125zm3.5267944 -8.0q3.375 3.125 3.375 6.953125q0 0.796875 -0.15625 1.65625q-0.15625 0.8437576 -0.546875 1.7343826q-0.390625 0.890625 -1.046875 1.796875q-0.65625 0.921875 -1.65625 1.84375l-0.734375 -0.75q1.421875 -1.421875 2.125 -2.953125q0.703125 -1.5468826 0.703125 -3.2343826q0 -3.484375 -2.828125 -6.265625l0.765625 -0.78125zm7.2143555 12.406258q0.375 0.015625 0.71875 -0.0625q0.359375 -0.078125 0.625 -0.234375q0.265625 -0.15625 0.421875 -0.390625q0.171875 -0.234375 0.171875 -0.546875q0 -0.296875 -0.109375 -0.484375q-0.109375 -0.203125 -0.25 -0.359375q-0.125 -0.15625 -0.234375 -0.34375q-0.09375 -0.1875 -0.09375 -0.484375q0 -0.15625 0.046875 -0.328125q0.0625 -0.171875 0.1875 -0.31250763q0.125 -0.140625 0.3125 -0.21875q0.1875 -0.09375 0.4375 -0.09375q0.265625 0 0.5 0.109375q0.234375 0.109375 0.40625 0.32813263q0.1875 0.21875 0.296875 0.546875q0.109375 0.328125 0.109375 0.78125q0 0.59375 -0.234375 1.15625q-0.21875 0.5625 -0.671875 1.0q-0.4375 0.4375 -1.109375 0.6875q-0.65625 0.25 -1.53125 0.25l0 -1.0zm2.296875 -8.984383q0.21875 0 0.421875 0.09375q0.21875 0.09375 0.359375 0.25q0.15625 0.140625 0.25 0.359375q0.09375 0.203125 0.09375 0.421875q0 0.234375 -0.09375 0.4375q-0.09375 0.203125 -0.25 0.359375q-0.140625 0.15625 -0.359375 0.25q-0.203125 0.078125 -0.421875 0.078125q-0.234375 0 -0.4375 -0.078125q-0.203125 -0.09375 -0.359375 -0.25q-0.15625 -0.15625 -0.25 -0.359375q-0.078125 -0.203125 -0.078125 -0.4375q0 -0.21875 0.078125 -0.421875q0.09375 -0.21875 0.25 -0.359375q0.15625 -0.15625 0.359375 -0.25q0.203125 -0.09375 0.4375 -0.09375z" fill-rule="nonzero"></path><path fill="#f3f3f3" d="m542.8969 57.78478l126.96063 0l0 36.85039l-126.96063 0z" fill-rule="nonzero"></path><path stroke="#000000" stroke-width="1.0" stroke-linejoin="round" stroke-linecap="butt" d="m542.8969 57.78478l126.96063 0l0 36.85039l-126.96063 0z" fill-rule="nonzero"></path><path fill="#000000" d="m581.8481 72.13372q-1.015625 -0.21875 -1.734375 -0.21875q-1.71875 0 -1.71875 1.796875l0 1.296875l3.21875 0l0 1.0625l-3.21875 0l0 5.21875l-1.296875 0l0 -5.21875l-2.359375 0l0 -1.0625l2.359375 0l0 -1.21875q0 -2.9375 3.0625 -2.9375q0.765625 0 1.6875 0.171875l0 1.109375zm-7.703125 1.796875l0 0zm13.948669 7.359375l-0.03125 -0.984375q-0.59375 0.59375 -1.21875 0.859375q-0.609375 0.25 -1.296875 0.25q-0.625 0 -1.078125 -0.15625q-0.4375 -0.15625 -0.734375 -0.4375q-0.28125 -0.28125 -0.421875 -0.65625q-0.140625 -0.390625 -0.140625 -0.84375q0 -1.09375 0.828125 -1.71875q0.828125 -0.640625 2.4375 -0.640625l1.515625 0l0 -0.640625q0 -0.65625 -0.421875 -1.046875q-0.40625 -0.390625 -1.265625 -0.390625q-0.625 0 -1.234375 0.140625q-0.59375 0.140625 -1.234375 0.40625l0 -1.15625q0.234375 -0.09375 0.53125 -0.171875q0.296875 -0.078125 0.625 -0.140625q0.328125 -0.078125 0.6875 -0.109375q0.359375 -0.046875 0.734375 -0.046875q0.65625 0 1.1875 0.15625q0.546875 0.140625 0.90625 0.4375q0.375 0.296875 0.5625 0.75q0.203125 0.453125 0.203125 1.078125l0 5.0625l-1.140625 0zm-0.140625 -3.34375l-1.609375 0q-0.484375 0 -0.828125 0.09375q-0.34375 0.09375 -0.5625 0.265625q-0.21875 0.171875 -0.328125 0.421875q-0.09375 0.25 -0.09375 0.5625q0 0.203125 0.0625 0.40625q0.0625 0.1875 0.203125 0.34375q0.15625 0.140625 0.390625 0.234375q0.234375 0.078125 0.5625 0.078125q0.4375 0 1.0 -0.265625q0.578125 -0.265625 1.203125 -0.84375l0 -1.296875zm9.19873 3.078125q-0.5 0.1875 -1.03125 0.28125q-0.515625 0.09375 -1.078125 0.09375q-1.734375 0 -2.6875 -0.9375q-0.9375 -0.953125 -0.9375 -2.78125q0 -0.859375 0.265625 -1.5625q0.28125 -0.71875 0.765625 -1.21875q0.5 -0.515625 1.171875 -0.78125q0.6875 -0.28125 1.5 -0.28125q0.578125 0 1.078125 0.078125q0.5 0.078125 0.953125 0.265625l0 1.21875q-0.484375 -0.25 -0.984375 -0.359375q-0.484375 -0.125 -1.015625 -0.125q-0.484375 0 -0.921875 0.1875q-0.4375 0.1875 -0.765625 0.546875q-0.328125 0.34375 -0.53125 0.859375q-0.1875 0.5 -0.1875 1.140625q0 1.328125 0.640625 2.0q0.65625 0.65625 1.8125 0.65625q0.515625 0 1.0 -0.109375q0.5 -0.125 0.953125 -0.359375l0 1.1875zm8.261169 0.15625q-0.421875 0.109375 -0.890625 0.15625q-0.453125 0.0625 -0.9375 0.0625q-1.390625 0 -2.078125 -0.625q-0.671875 -0.640625 -0.671875 -1.9375l0 -3.828125l-2.046875 0l0 -1.078125l2.046875 0l0 -2.015625l1.28125 -0.328125l0 2.34375l3.296875 0l0 1.078125l-3.296875 0l0 3.734375q0 0.78125 0.421875 1.1875q0.421875 0.390625 1.234375 0.390625q0.359375 0 0.765625 -0.046875q0.421875 -0.0625 0.875 -0.1875l0 1.09375zm6.5424805 3.1875q-3.375 -3.125 -3.375 -6.921875q0 -0.875 0.171875 -1.75q0.1875 -0.890625 0.578125 -1.78125q0.40625 -0.890625 1.0625 -1.765625q0.65625 -0.890625 1.59375 -1.765625l0.734375 0.75q-2.84375 2.8125 -2.84375 6.21875q0 1.703125 0.71875 3.28125q0.71875 1.5625 2.125 2.953125l-0.765625 0.78125zm9.870544 -3.078125l-6.3125 0l0 -1.140625l2.46875 -2.46875q0.609375 -0.59375 0.984375 -1.03125q0.390625 -0.4375 0.59375 -0.796875q0.21875 -0.375 0.296875 -0.6875q0.078125 -0.328125 0.078125 -0.703125q0 -0.34375 -0.109375 -0.65625q-0.09375 -0.328125 -0.296875 -0.5625q-0.1875 -0.25 -0.5 -0.390625q-0.3125 -0.140625 -0.75 -0.140625q-0.609375 0 -1.109375 0.28125q-0.5 0.265625 -0.921875 0.6875l-0.703125 -0.828125q0.546875 -0.578125 1.25 -0.921875q0.703125 -0.34375 1.640625 -0.34375q0.640625 0 1.15625 0.1875q0.53125 0.1875 0.90625 0.546875q0.390625 0.359375 0.59375 0.890625q0.21875 0.515625 0.21875 1.15625q0 0.5625 -0.15625 1.03125q-0.140625 0.46875 -0.4375 0.9375q-0.296875 0.453125 -0.75 0.953125q-0.453125 0.5 -1.0625 1.09375l-1.734375 1.6875l4.65625 0l0 1.21875zm3.3393555 -10.90625q3.375 3.125 3.375 6.953125q0 0.796875 -0.15625 1.65625q-0.15625 0.84375 -0.546875 1.734375q-0.390625 0.890625 -1.046875 1.796875q-0.65625 0.921875 -1.65625 1.84375l-0.734375 -0.75q1.421875 -1.421875 2.125 -2.953125q0.703125 -1.546875 0.703125 -3.234375q0 -3.484375 -2.828125 -6.265625l0.765625 -0.78125zm7.2142944 12.40625q0.375 0.015625 0.71875 -0.0625q0.359375 -0.078125 0.625 -0.234375q0.265625 -0.15625 0.421875 -0.390625q0.171875 -0.234375 0.171875 -0.546875q0 -0.296875 -0.109375 -0.484375q-0.109375 -0.203125 -0.25 -0.359375q-0.125 -0.15625 -0.234375 -0.34375q-0.09375 -0.1875 -0.09375 -0.484375q0 -0.15625 0.046875 -0.328125q0.0625 -0.171875 0.1875 -0.3125q0.125 -0.140625 0.3125 -0.21875q0.1875 -0.09375 0.4375 -0.09375q0.265625 0 0.5 0.109375q0.234375 0.109375 0.40625 0.328125q0.1875 0.21875 0.296875 0.546875q0.109375 0.328125 0.109375 0.78125q0 0.59375 -0.234375 1.15625q-0.21875 0.5625 -0.671875 1.0q-0.4375 0.4375 -1.109375 0.6875q-0.65625 0.25 -1.53125 0.25l0 -1.0zm2.296875 -8.984375q0.21875 0 0.421875 0.09375q0.21875 0.09375 0.359375 0.25q0.15625 0.140625 0.25 0.359375q0.09375 0.203125 0.09375 0.421875q0 0.234375 -0.09375 0.4375q-0.09375 0.203125 -0.25 0.359375q-0.140625 0.15625 -0.359375 0.25q-0.203125 0.078125 -0.421875 0.078125q-0.234375 0 -0.4375 -0.078125q-0.203125 -0.09375 -0.359375 -0.25q-0.15625 -0.15625 -0.25 -0.359375q-0.078125 -0.203125 -0.078125 -0.4375q0 -0.21875 0.078125 -0.421875q0.09375 -0.21875 0.25 -0.359375q0.15625 -0.15625 0.359375 -0.25q0.203125 -0.09375 0.4375 -0.09375z" fill-rule="nonzero"></path><path fill="#f3f3f3" d="m542.8969 9.784777l126.96063 0l0 36.850395l-126.96063 0z" fill-rule="nonzero"></path><path stroke="#000000" stroke-width="1.0" stroke-linejoin="round" stroke-linecap="butt" d="m542.8969 9.784777l126.96063 0l0 36.850395l-126.96063 0z" fill-rule="nonzero"></path><path fill="#000000" d="m581.8481 24.133722q-1.015625 -0.21875 -1.734375 -0.21875q-1.71875 0 -1.71875 1.796875l0 1.296875l3.21875 0l0 1.0625l-3.21875 0l0 5.218752l-1.296875 0l0 -5.218752l-2.359375 0l0 -1.0625l2.359375 0l0 -1.21875q0 -2.9375 3.0625 -2.9375q0.765625 0 1.6875 0.171875l0 1.109375zm-7.703125 1.796875l0 0zm13.948669 7.359377l-0.03125 -0.984375q-0.59375 0.59375 -1.21875 0.859375q-0.609375 0.25 -1.296875 0.25q-0.625 0 -1.078125 -0.15625q-0.4375 -0.15625 -0.734375 -0.4375q-0.28125 -0.28125 -0.421875 -0.65625q-0.140625 -0.3906269 -0.140625 -0.8437519q0 -1.09375 0.828125 -1.71875q0.828125 -0.640625 2.4375 -0.640625l1.515625 0l0 -0.640625q0 -0.65625 -0.421875 -1.046875q-0.40625 -0.390625 -1.265625 -0.390625q-0.625 0 -1.234375 0.140625q-0.59375 0.140625 -1.234375 0.40625l0 -1.15625q0.234375 -0.09375 0.53125 -0.171875q0.296875 -0.078125 0.625 -0.140625q0.328125 -0.078125 0.6875 -0.109375q0.359375 -0.046875 0.734375 -0.046875q0.65625 0 1.1875 0.15625q0.546875 0.140625 0.90625 0.4375q0.375 0.296875 0.5625 0.75q0.203125 0.453125 0.203125 1.078125l0 5.062502l-1.140625 0zm-0.140625 -3.343752l-1.609375 0q-0.484375 0 -0.828125 0.09375q-0.34375 0.09375 -0.5625 0.265625q-0.21875 0.171875 -0.328125 0.421875q-0.09375 0.25 -0.09375 0.5625q0 0.203125 0.0625 0.40625q0.0625 0.1875 0.203125 0.3437519q0.15625 0.140625 0.390625 0.234375q0.234375 0.078125 0.5625 0.078125q0.4375 0 1.0 -0.265625q0.578125 -0.2656269 1.203125 -0.8437519l0 -1.296875zm9.19873 3.078127q-0.5 0.1875 -1.03125 0.28125q-0.515625 0.09375 -1.078125 0.09375q-1.734375 0 -2.6875 -0.9375q-0.9375 -0.9531269 -0.9375 -2.781252q0 -0.859375 0.265625 -1.5625q0.28125 -0.71875 0.765625 -1.21875q0.5 -0.515625 1.171875 -0.78125q0.6875 -0.28125 1.5 -0.28125q0.578125 0 1.078125 0.078125q0.5 0.078125 0.953125 0.265625l0 1.21875q-0.484375 -0.25 -0.984375 -0.359375q-0.484375 -0.125 -1.015625 -0.125q-0.484375 0 -0.921875 0.1875q-0.4375 0.1875 -0.765625 0.546875q-0.328125 0.34375 -0.53125 0.859375q-0.1875 0.5 -0.1875 1.140625q0 1.328125 0.640625 2.0q0.65625 0.6562519 1.8125 0.6562519q0.515625 0 1.0 -0.109375q0.5 -0.125 0.953125 -0.3593769l0 1.1875019zm8.261169 0.15625q-0.421875 0.109375 -0.890625 0.15625q-0.453125 0.0625 -0.9375 0.0625q-1.390625 0 -2.078125 -0.625q-0.671875 -0.640625 -0.671875 -1.9375019l0 -3.828125l-2.046875 0l0 -1.078125l2.046875 0l0 -2.015625l1.28125 -0.328125l0 2.34375l3.296875 0l0 1.078125l-3.296875 0l0 3.734375q0 0.78125 0.421875 1.1875q0.421875 0.3906269 1.234375 0.3906269q0.359375 0 0.765625 -0.046875q0.421875 -0.0625 0.875 -0.1875l0 1.09375zm6.5424805 3.1875q-3.375 -3.125 -3.375 -6.921877q0 -0.875 0.171875 -1.75q0.1875 -0.890625 0.578125 -1.78125q0.40625 -0.890625 1.0625 -1.765625q0.65625 -0.890625 1.59375 -1.765625l0.734375 0.75q-2.84375 2.8125 -2.84375 6.21875q0 1.703125 0.71875 3.281252q0.71875 1.5625 2.125 2.953125l-0.765625 0.78125zm9.776794 -3.078125l-6.0 0l0 -1.1875l2.453125 0l0 -6.984377l-2.296875 1.25l-0.46875 -1.09375l3.046875 -1.59375l1.125 0l0 8.421877l2.140625 0l0 1.1875zm3.4331055 -10.906252q3.375 3.125 3.375 6.953125q0 0.796875 -0.15625 1.65625q-0.15625 0.84375 -0.546875 1.7343769q-0.390625 0.890625 -1.046875 1.796875q-0.65625 0.921875 -1.65625 1.84375l-0.734375 -0.75q1.421875 -1.421875 2.125 -2.953125q0.703125 -1.5468769 0.703125 -3.234377q0 -3.484375 -2.828125 -6.265625l0.765625 -0.78125zm7.2142944 12.406252q0.375 0.015625 0.71875 -0.0625q0.359375 -0.078125 0.625 -0.234375q0.265625 -0.15625 0.421875 -0.390625q0.171875 -0.234375 0.171875 -0.546875q0 -0.296875 -0.109375 -0.484375q-0.109375 -0.203125 -0.25 -0.359375q-0.125 -0.15625 -0.234375 -0.34375q-0.09375 -0.1875 -0.09375 -0.4843769q0 -0.15625 0.046875 -0.328125q0.0625 -0.171875 0.1875 -0.3125q0.125 -0.140625 0.3125 -0.21875q0.1875 -0.09375 0.4375 -0.09375q0.265625 0 0.5 0.109375q0.234375 0.109375 0.40625 0.328125q0.1875 0.21875 0.296875 0.546875q0.109375 0.3281269 0.109375 0.7812519q0 0.59375 -0.234375 1.15625q-0.21875 0.5625 -0.671875 1.0q-0.4375 0.4375 -1.109375 0.6875q-0.65625 0.25 -1.53125 0.25l0 -1.0zm2.296875 -8.984377q0.21875 0 0.421875 0.09375q0.21875 0.09375 0.359375 0.25q0.15625 0.140625 0.25 0.359375q0.09375 0.203125 0.09375 0.421875q0 0.234375 -0.09375 0.4375q-0.09375 0.203125 -0.25 0.359375q-0.140625 0.15625 -0.359375 0.25q-0.203125 0.078125 -0.421875 0.078125q-0.234375 0 -0.4375 -0.078125q-0.203125 -0.09375 -0.359375 -0.25q-0.15625 -0.15625 -0.25 -0.359375q-0.078125 -0.203125 -0.078125 -0.4375q0 -0.21875 0.078125 -0.421875q0.09375 -0.21875 0.25 -0.359375q0.15625 -0.15625 0.359375 -0.25q0.203125 -0.09375 0.4375 -0.09375z" fill-rule="nonzero"></path><path fill="#666666" d="m11.207349 155.2336l150.80315 0l0 4.598419l-150.80315 0z" fill-rule="nonzero"></path><path stroke="#000000" stroke-width="1.0" stroke-linejoin="round" stroke-linecap="butt" d="m11.207349 155.2336l150.80315 0l0 4.598419l-150.80315 0z" fill-rule="nonzero"></path><path fill="#666666" d="m1046.4982 155.2336l150.8031 0l0 4.598419l-150.8031 0z" fill-rule="nonzero"></path><path stroke="#000000" stroke-width="1.0" stroke-linejoin="round" stroke-linecap="butt" d="m1046.4982 155.2336l150.8031 0l0 4.598419l-150.8031 0z" fill-rule="nonzero"></path><path fill="#666666" d="m702.81854 155.2336l150.80316 0l0 4.598419l-150.80316 0z" fill-rule="nonzero"></path><path stroke="#000000" stroke-width="1.0" stroke-linejoin="round" stroke-linecap="butt" d="m702.81854 155.2336l150.80316 0l0 4.598419l-150.80316 0z" fill-rule="nonzero"></path><path fill="#f3f3f3" d="m714.7415 106.509186l126.96063 0l0 36.850388l-126.96063 0z" fill-rule="nonzero"></path><path stroke="#000000" stroke-width="1.0" stroke-linejoin="round" stroke-linecap="butt" d="m714.7415 106.509186l126.96063 0l0 36.850388l-126.96063 0z" fill-rule="nonzero"></path><path fill="#000000" d="m753.6927 120.85813q-1.015625 -0.21875 -1.734375 -0.21875q-1.71875 0 -1.71875 1.796875l0 1.296875l3.21875 0l0 1.0625l-3.21875 0l0 5.2187576l-1.296875 0l0 -5.2187576l-2.359375 0l0 -1.0625l2.359375 0l0 -1.21875q0 -2.9375 3.0625 -2.9375q0.765625 0 1.6875 0.171875l0 1.109375zm-7.703125 1.796875l0 0zm13.948669 7.3593826l-0.03125 -0.984375q-0.59375 0.59375 -1.21875 0.859375q-0.609375 0.25 -1.296875 0.25q-0.625 0 -1.078125 -0.15625q-0.4375 -0.15625 -0.734375 -0.4375q-0.28125 -0.28125 -0.421875 -0.65625q-0.140625 -0.390625 -0.140625 -0.84375q0 -1.0937576 0.828125 -1.7187576q0.828125 -0.640625 2.4375 -0.640625l1.515625 0l0 -0.640625q0 -0.65625 -0.421875 -1.046875q-0.40625 -0.390625 -1.265625 -0.390625q-0.625 0 -1.234375 0.140625q-0.59375 0.140625 -1.234375 0.40625l0 -1.15625q0.234375 -0.09375 0.53125 -0.171875q0.296875 -0.078125 0.625 -0.140625q0.328125 -0.078125 0.6875 -0.109375q0.359375 -0.046875 0.734375 -0.046875q0.65625 0 1.1875 0.15625q0.546875 0.140625 0.90625 0.4375q0.375 0.296875 0.5625 0.75q0.203125 0.453125 0.203125 1.078125l0 5.0625076l-1.140625 0zm-0.140625 -3.3437576l-1.609375 0q-0.484375 0 -0.828125 0.09375q-0.34375 0.09375 -0.5625 0.265625q-0.21875 0.171875 -0.328125 0.421875q-0.09375 0.25 -0.09375 0.5625076q0 0.203125 0.0625 0.40625q0.0625 0.1875 0.203125 0.34375q0.15625 0.140625 0.390625 0.234375q0.234375 0.078125 0.5625 0.078125q0.4375 0 1.0 -0.265625q0.578125 -0.265625 1.203125 -0.8437576l0 -1.296875zm9.19873 3.0781326q-0.5 0.1875 -1.03125 0.28125q-0.515625 0.09375 -1.078125 0.09375q-1.734375 0 -2.6875 -0.9375q-0.9375 -0.953125 -0.9375 -2.7812576q0 -0.859375 0.265625 -1.5625q0.28125 -0.71875 0.765625 -1.21875q0.5 -0.515625 1.171875 -0.78125q0.6875 -0.28125 1.5 -0.28125q0.578125 0 1.078125 0.078125q0.5 0.078125 0.953125 0.265625l0 1.21875q-0.484375 -0.25 -0.984375 -0.359375q-0.484375 -0.125 -1.015625 -0.125q-0.484375 0 -0.921875 0.1875q-0.4375 0.1875 -0.765625 0.546875q-0.328125 0.34375 -0.53125 0.859375q-0.1875 0.5 -0.1875 1.140625q0 1.328125 0.640625 2.0000076q0.65625 0.65625 1.8125 0.65625q0.515625 0 1.0 -0.109375q0.5 -0.125 0.953125 -0.359375l0 1.1875zm8.261169 0.15625q-0.421875 0.109375 -0.890625 0.15625q-0.453125 0.0625 -0.9375 0.0625q-1.390625 0 -2.078125 -0.625q-0.671875 -0.640625 -0.671875 -1.9375076l0 -3.828125l-2.046875 0l0 -1.078125l2.046875 0l0 -2.015625l1.28125 -0.328125l0 2.34375l3.296875 0l0 1.078125l-3.296875 0l0 3.734375q0 0.7812576 0.421875 1.1875076q0.421875 0.390625 1.234375 0.390625q0.359375 0 0.765625 -0.046875q0.421875 -0.0625 0.875 -0.1875l0 1.09375zm6.5424805 3.1875q-3.375 -3.125 -3.375 -6.9218826q0 -0.875 0.171875 -1.75q0.1875 -0.890625 0.578125 -1.78125q0.40625 -0.890625 1.0625 -1.765625q0.65625 -0.890625 1.59375 -1.765625l0.734375 0.75q-2.84375 2.8125 -2.84375 6.21875q0 1.703125 0.71875 3.2812576q0.71875 1.5625 2.125 2.953125l-0.765625 0.78125zm9.683044 -5.9843826q0 0.625 -0.265625 1.1875076q-0.25 0.546875 -0.765625 0.96875q-0.515625 0.40625 -1.296875 0.640625q-0.765625 0.234375 -1.796875 0.234375q-0.578125 0 -1.03125 -0.03125q-0.453125 -0.03125 -0.84375 -0.09375l0 -1.140625q0.453125 0.078125 0.953125 0.125q0.515625 0.046875 1.03125 0.046875q0.71875 0 1.21875 -0.125q0.515625 -0.140625 0.84375 -0.375q0.328125 -0.25 0.46875 -0.5937576q0.140625 -0.34375 0.140625 -0.765625q0 -0.40625 -0.171875 -0.6875q-0.171875 -0.296875 -0.5 -0.5q-0.3125 -0.203125 -0.765625 -0.296875q-0.4375 -0.09375 -0.953125 -0.09375l-1.09375 0l0 -1.046875l1.109375 0q0.421875 0 0.78125 -0.109375q0.359375 -0.125 0.609375 -0.328125q0.25 -0.21875 0.375 -0.53125q0.140625 -0.3125 0.140625 -0.703125q0 -0.765625 -0.46875 -1.109375q-0.46875 -0.359375 -1.375 -0.359375q-0.484375 0 -1.0 0.09375q-0.5 0.09375 -1.09375 0.28125l0 -1.109375q0.25 -0.09375 0.53125 -0.15625q0.28125 -0.078125 0.5625 -0.125q0.28125 -0.046875 0.5625 -0.0625q0.28125 -0.03125 0.53125 -0.03125q0.765625 0 1.34375 0.171875q0.578125 0.15625 0.96875 0.46875q0.390625 0.296875 0.578125 0.75q0.203125 0.4375 0.203125 0.984375q0 0.8125 -0.421875 1.375q-0.421875 0.5625 -1.15625 0.890625q0.375 0.046875 0.734375 0.234375q0.375 0.171875 0.65625 0.453125q0.296875 0.265625 0.46875 0.640625q0.1875 0.375 0.1875 0.828125zm3.5268555 -8.0q3.375 3.125 3.375 6.953125q0 0.796875 -0.15625 1.65625q-0.15625 0.8437576 -0.546875 1.7343826q-0.390625 0.890625 -1.046875 1.796875q-0.65625 0.921875 -1.65625 1.84375l-0.734375 -0.75q1.421875 -1.421875 2.125 -2.953125q0.703125 -1.5468826 0.703125 -3.2343826q0 -3.484375 -2.828125 -6.265625l0.765625 -0.78125zm7.2142944 12.406258q0.375 0.015625 0.71875 -0.0625q0.359375 -0.078125 0.625 -0.234375q0.265625 -0.15625 0.421875 -0.390625q0.171875 -0.234375 0.171875 -0.546875q0 -0.296875 -0.109375 -0.484375q-0.109375 -0.203125 -0.25 -0.359375q-0.125 -0.15625 -0.234375 -0.34375q-0.09375 -0.1875 -0.09375 -0.484375q0 -0.15625 0.046875 -0.328125q0.0625 -0.171875 0.1875 -0.31250763q0.125 -0.140625 0.3125 -0.21875q0.1875 -0.09375 0.4375 -0.09375q0.265625 0 0.5 0.109375q0.234375 0.109375 0.40625 0.32813263q0.1875 0.21875 0.296875 0.546875q0.109375 0.328125 0.109375 0.78125q0 0.59375 -0.234375 1.15625q-0.21875 0.5625 -0.671875 1.0q-0.4375 0.4375 -1.109375 0.6875q-0.65625 0.25 -1.53125 0.25l0 -1.0zm2.296875 -8.984383q0.21875 0 0.421875 0.09375q0.21875 0.09375 0.359375 0.25q0.15625 0.140625 0.25 0.359375q0.09375 0.203125 0.09375 0.421875q0 0.234375 -0.09375 0.4375q-0.09375 0.203125 -0.25 0.359375q-0.140625 0.15625 -0.359375 0.25q-0.203125 0.078125 -0.421875 0.078125q-0.234375 0 -0.4375 -0.078125q-0.203125 -0.09375 -0.359375 -0.25q-0.15625 -0.15625 -0.25 -0.359375q-0.078125 -0.203125 -0.078125 -0.4375q0 -0.21875 0.078125 -0.421875q0.09375 -0.21875 0.25 -0.359375q0.15625 -0.15625 0.359375 -0.25q0.203125 -0.09375 0.4375 -0.09375z" fill-rule="nonzero"></path><path fill="#f3f3f3" d="m714.73535 57.78478l126.96063 0l0 36.85039l-126.96063 0z" fill-rule="nonzero"></path><path stroke="#000000" stroke-width="1.0" stroke-linejoin="round" stroke-linecap="butt" d="m714.73535 57.78478l126.96063 0l0 36.85039l-126.96063 0z" fill-rule="nonzero"></path><path fill="#000000" d="m753.6865 72.13372q-1.015625 -0.21875 -1.734375 -0.21875q-1.71875 0 -1.71875 1.796875l0 1.296875l3.21875 0l0 1.0625l-3.21875 0l0 5.21875l-1.296875 0l0 -5.21875l-2.359375 0l0 -1.0625l2.359375 0l0 -1.21875q0 -2.9375 3.0625 -2.9375q0.765625 0 1.6875 0.171875l0 1.109375zm-7.703125 1.796875l0 0zm13.948669 7.359375l-0.03125 -0.984375q-0.59375 0.59375 -1.21875 0.859375q-0.609375 0.25 -1.296875 0.25q-0.625 0 -1.078125 -0.15625q-0.4375 -0.15625 -0.734375 -0.4375q-0.28125 -0.28125 -0.421875 -0.65625q-0.140625 -0.390625 -0.140625 -0.84375q0 -1.09375 0.828125 -1.71875q0.828125 -0.640625 2.4375 -0.640625l1.515625 0l0 -0.640625q0 -0.65625 -0.421875 -1.046875q-0.40625 -0.390625 -1.265625 -0.390625q-0.625 0 -1.234375 0.140625q-0.59375 0.140625 -1.234375 0.40625l0 -1.15625q0.234375 -0.09375 0.53125 -0.171875q0.296875 -0.078125 0.625 -0.140625q0.328125 -0.078125 0.6875 -0.109375q0.359375 -0.046875 0.734375 -0.046875q0.65625 0 1.1875 0.15625q0.546875 0.140625 0.90625 0.4375q0.375 0.296875 0.5625 0.75q0.203125 0.453125 0.203125 1.078125l0 5.0625l-1.140625 0zm-0.140625 -3.34375l-1.609375 0q-0.484375 0 -0.828125 0.09375q-0.34375 0.09375 -0.5625 0.265625q-0.21875 0.171875 -0.328125 0.421875q-0.09375 0.25 -0.09375 0.5625q0 0.203125 0.0625 0.40625q0.0625 0.1875 0.203125 0.34375q0.15625 0.140625 0.390625 0.234375q0.234375 0.078125 0.5625 0.078125q0.4375 0 1.0 -0.265625q0.578125 -0.265625 1.203125 -0.84375l0 -1.296875zm9.19873 3.078125q-0.5 0.1875 -1.03125 0.28125q-0.515625 0.09375 -1.078125 0.09375q-1.734375 0 -2.6875 -0.9375q-0.9375 -0.953125 -0.9375 -2.78125q0 -0.859375 0.265625 -1.5625q0.28125 -0.71875 0.765625 -1.21875q0.5 -0.515625 1.171875 -0.78125q0.6875 -0.28125 1.5 -0.28125q0.578125 0 1.078125 0.078125q0.5 0.078125 0.953125 0.265625l0 1.21875q-0.484375 -0.25 -0.984375 -0.359375q-0.484375 -0.125 -1.015625 -0.125q-0.484375 0 -0.921875 0.1875q-0.4375 0.1875 -0.765625 0.546875q-0.328125 0.34375 -0.53125 0.859375q-0.1875 0.5 -0.1875 1.140625q0 1.328125 0.640625 2.0q0.65625 0.65625 1.8125 0.65625q0.515625 0 1.0 -0.109375q0.5 -0.125 0.953125 -0.359375l0 1.1875zm8.261169 0.15625q-0.421875 0.109375 -0.890625 0.15625q-0.453125 0.0625 -0.9375 0.0625q-1.390625 0 -2.078125 -0.625q-0.671875 -0.640625 -0.671875 -1.9375l0 -3.828125l-2.046875 0l0 -1.078125l2.046875 0l0 -2.015625l1.28125 -0.328125l0 2.34375l3.296875 0l0 1.078125l-3.296875 0l0 3.734375q0 0.78125 0.421875 1.1875q0.421875 0.390625 1.234375 0.390625q0.359375 0 0.765625 -0.046875q0.421875 -0.0625 0.875 -0.1875l0 1.09375zm6.5424805 3.1875q-3.375 -3.125 -3.375 -6.921875q0 -0.875 0.171875 -1.75q0.1875 -0.890625 0.578125 -1.78125q0.40625 -0.890625 1.0625 -1.765625q0.65625 -0.890625 1.59375 -1.765625l0.734375 0.75q-2.84375 2.8125 -2.84375 6.21875q0 1.703125 0.71875 3.28125q0.71875 1.5625 2.125 2.953125l-0.765625 0.78125zm9.870544 -3.078125l-6.3125 0l0 -1.140625l2.46875 -2.46875q0.609375 -0.59375 0.984375 -1.03125q0.390625 -0.4375 0.59375 -0.796875q0.21875 -0.375 0.296875 -0.6875q0.078125 -0.328125 0.078125 -0.703125q0 -0.34375 -0.109375 -0.65625q-0.09375 -0.328125 -0.296875 -0.5625q-0.1875 -0.25 -0.5 -0.390625q-0.3125 -0.140625 -0.75 -0.140625q-0.609375 0 -1.109375 0.28125q-0.5 0.265625 -0.921875 0.6875l-0.703125 -0.828125q0.546875 -0.578125 1.25 -0.921875q0.703125 -0.34375 1.640625 -0.34375q0.640625 0 1.15625 0.1875q0.53125 0.1875 0.90625 0.546875q0.390625 0.359375 0.59375 0.890625q0.21875 0.515625 0.21875 1.15625q0 0.5625 -0.15625 1.03125q-0.140625 0.46875 -0.4375 0.9375q-0.296875 0.453125 -0.75 0.953125q-0.453125 0.5 -1.0625 1.09375l-1.734375 1.6875l4.65625 0l0 1.21875zm3.3393555 -10.90625q3.375 3.125 3.375 6.953125q0 0.796875 -0.15625 1.65625q-0.15625 0.84375 -0.546875 1.734375q-0.390625 0.890625 -1.046875 1.796875q-0.65625 0.921875 -1.65625 1.84375l-0.734375 -0.75q1.421875 -1.421875 2.125 -2.953125q0.703125 -1.546875 0.703125 -3.234375q0 -3.484375 -2.828125 -6.265625l0.765625 -0.78125zm7.2142944 12.40625q0.375 0.015625 0.71875 -0.0625q0.359375 -0.078125 0.625 -0.234375q0.265625 -0.15625 0.421875 -0.390625q0.171875 -0.234375 0.171875 -0.546875q0 -0.296875 -0.109375 -0.484375q-0.109375 -0.203125 -0.25 -0.359375q-0.125 -0.15625 -0.234375 -0.34375q-0.09375 -0.1875 -0.09375 -0.484375q0 -0.15625 0.046875 -0.328125q0.0625 -0.171875 0.1875 -0.3125q0.125 -0.140625 0.3125 -0.21875q0.1875 -0.09375 0.4375 -0.09375q0.265625 0 0.5 0.109375q0.234375 0.109375 0.40625 0.328125q0.1875 0.21875 0.296875 0.546875q0.109375 0.328125 0.109375 0.78125q0 0.59375 -0.234375 1.15625q-0.21875 0.5625 -0.671875 1.0q-0.4375 0.4375 -1.109375 0.6875q-0.65625 0.25 -1.53125 0.25l0 -1.0zm2.296875 -8.984375q0.21875 0 0.421875 0.09375q0.21875 0.09375 0.359375 0.25q0.15625 0.140625 0.25 0.359375q0.09375 0.203125 0.09375 0.421875q0 0.234375 -0.09375 0.4375q-0.09375 0.203125 -0.25 0.359375q-0.140625 0.15625 -0.359375 0.25q-0.203125 0.078125 -0.421875 0.078125q-0.234375 0 -0.4375 -0.078125q-0.203125 -0.09375 -0.359375 -0.25q-0.15625 -0.15625 -0.25 -0.359375q-0.078125 -0.203125 -0.078125 -0.4375q0 -0.21875 0.078125 -0.421875q0.09375 -0.21875 0.25 -0.359375q0.15625 -0.15625 0.359375 -0.25q0.203125 -0.09375 0.4375 -0.09375z" fill-rule="nonzero"></path><path fill="#666666" d="m874.6588 155.2336l150.8031 0l0 4.598419l-150.8031 0z" fill-rule="nonzero"></path><path stroke="#000000" stroke-width="1.0" stroke-linejoin="round" stroke-linecap="butt" d="m874.6588 155.2336l150.8031 0l0 4.598419l-150.8031 0z" fill-rule="nonzero"></path><path fill="#f3f3f3" d="m886.5818 106.509186l126.96063 0l0 36.850388l-126.96063 0z" fill-rule="nonzero"></path><path stroke="#000000" stroke-width="1.0" stroke-linejoin="round" stroke-linecap="butt" d="m886.5818 106.509186l126.96063 0l0 36.850388l-126.96063 0z" fill-rule="nonzero"></path><path fill="#000000" d="m925.5329 120.85813q-1.015625 -0.21875 -1.734375 -0.21875q-1.71875 0 -1.71875 1.796875l0 1.296875l3.21875 0l0 1.0625l-3.21875 0l0 5.2187576l-1.296875 0l0 -5.2187576l-2.359375 0l0 -1.0625l2.359375 0l0 -1.21875q0 -2.9375 3.0625 -2.9375q0.765625 0 1.6875 0.171875l0 1.109375zm-7.703125 1.796875l0 0zm13.94873 7.3593826l-0.03125 -0.984375q-0.59375 0.59375 -1.21875 0.859375q-0.609375 0.25 -1.296875 0.25q-0.625 0 -1.078125 -0.15625q-0.4375 -0.15625 -0.734375 -0.4375q-0.28125 -0.28125 -0.421875 -0.65625q-0.140625 -0.390625 -0.140625 -0.84375q0 -1.0937576 0.828125 -1.7187576q0.828125 -0.640625 2.4375 -0.640625l1.515625 0l0 -0.640625q0 -0.65625 -0.421875 -1.046875q-0.40625 -0.390625 -1.265625 -0.390625q-0.625 0 -1.234375 0.140625q-0.59375 0.140625 -1.234375 0.40625l0 -1.15625q0.234375 -0.09375 0.53125 -0.171875q0.296875 -0.078125 0.625 -0.140625q0.328125 -0.078125 0.6875 -0.109375q0.359375 -0.046875 0.734375 -0.046875q0.65625 0 1.1875 0.15625q0.546875 0.140625 0.90625 0.4375q0.375 0.296875 0.5625 0.75q0.203125 0.453125 0.203125 1.078125l0 5.0625076l-1.140625 0zm-0.140625 -3.3437576l-1.609375 0q-0.484375 0 -0.828125 0.09375q-0.34375 0.09375 -0.5625 0.265625q-0.21875 0.171875 -0.328125 0.421875q-0.09375 0.25 -0.09375 0.5625076q0 0.203125 0.0625 0.40625q0.0625 0.1875 0.203125 0.34375q0.15625 0.140625 0.390625 0.234375q0.234375 0.078125 0.5625 0.078125q0.4375 0 1.0 -0.265625q0.578125 -0.265625 1.203125 -0.8437576l0 -1.296875zm9.198669 3.0781326q-0.5 0.1875 -1.03125 0.28125q-0.515625 0.09375 -1.078125 0.09375q-1.734375 0 -2.6875 -0.9375q-0.9375 -0.953125 -0.9375 -2.7812576q0 -0.859375 0.265625 -1.5625q0.28125 -0.71875 0.765625 -1.21875q0.5 -0.515625 1.171875 -0.78125q0.6875 -0.28125 1.5 -0.28125q0.578125 0 1.078125 0.078125q0.5 0.078125 0.953125 0.265625l0 1.21875q-0.484375 -0.25 -0.984375 -0.359375q-0.484375 -0.125 -1.015625 -0.125q-0.484375 0 -0.921875 0.1875q-0.4375 0.1875 -0.765625 0.546875q-0.328125 0.34375 -0.53125 0.859375q-0.1875 0.5 -0.1875 1.140625q0 1.328125 0.640625 2.0000076q0.65625 0.65625 1.8125 0.65625q0.515625 0 1.0 -0.109375q0.5 -0.125 0.953125 -0.359375l0 1.1875zm8.26123 0.15625q-0.421875 0.109375 -0.890625 0.15625q-0.453125 0.0625 -0.9375 0.0625q-1.390625 0 -2.078125 -0.625q-0.671875 -0.640625 -0.671875 -1.9375076l0 -3.828125l-2.046875 0l0 -1.078125l2.046875 0l0 -2.015625l1.28125 -0.328125l0 2.34375l3.296875 0l0 1.078125l-3.296875 0l0 3.734375q0 0.7812576 0.421875 1.1875076q0.421875 0.390625 1.234375 0.390625q0.359375 0 0.765625 -0.046875q0.421875 -0.0625 0.875 -0.1875l0 1.09375zm6.5424194 3.1875q-3.375 -3.125 -3.375 -6.9218826q0 -0.875 0.171875 -1.75q0.1875 -0.890625 0.578125 -1.78125q0.40625 -0.890625 1.0625 -1.765625q0.65625 -0.890625 1.59375 -1.765625l0.734375 0.75q-2.84375 2.8125 -2.84375 6.21875q0 1.703125 0.71875 3.2812576q0.71875 1.5625 2.125 2.953125l-0.765625 0.78125zm9.683105 -5.9843826q0 0.625 -0.265625 1.1875076q-0.25 0.546875 -0.765625 0.96875q-0.515625 0.40625 -1.296875 0.640625q-0.765625 0.234375 -1.796875 0.234375q-0.578125 0 -1.03125 -0.03125q-0.453125 -0.03125 -0.84375 -0.09375l0 -1.140625q0.453125 0.078125 0.953125 0.125q0.515625 0.046875 1.03125 0.046875q0.71875 0 1.21875 -0.125q0.515625 -0.140625 0.84375 -0.375q0.328125 -0.25 0.46875 -0.5937576q0.140625 -0.34375 0.140625 -0.765625q0 -0.40625 -0.171875 -0.6875q-0.171875 -0.296875 -0.5 -0.5q-0.3125 -0.203125 -0.765625 -0.296875q-0.4375 -0.09375 -0.953125 -0.09375l-1.09375 0l0 -1.046875l1.109375 0q0.421875 0 0.78125 -0.109375q0.359375 -0.125 0.609375 -0.328125q0.25 -0.21875 0.375 -0.53125q0.140625 -0.3125 0.140625 -0.703125q0 -0.765625 -0.46875 -1.109375q-0.46875 -0.359375 -1.375 -0.359375q-0.484375 0 -1.0 0.09375q-0.5 0.09375 -1.09375 0.28125l0 -1.109375q0.25 -0.09375 0.53125 -0.15625q0.28125 -0.078125 0.5625 -0.125q0.28125 -0.046875 0.5625 -0.0625q0.28125 -0.03125 0.53125 -0.03125q0.765625 0 1.34375 0.171875q0.578125 0.15625 0.96875 0.46875q0.390625 0.296875 0.578125 0.75q0.203125 0.4375 0.203125 0.984375q0 0.8125 -0.421875 1.375q-0.421875 0.5625 -1.15625 0.890625q0.375 0.046875 0.734375 0.234375q0.375 0.171875 0.65625 0.453125q0.296875 0.265625 0.46875 0.640625q0.1875 0.375 0.1875 0.828125zm3.5267944 -8.0q3.375 3.125 3.375 6.953125q0 0.796875 -0.15625 1.65625q-0.15625 0.8437576 -0.546875 1.7343826q-0.390625 0.890625 -1.046875 1.796875q-0.65625 0.921875 -1.65625 1.84375l-0.734375 -0.75q1.421875 -1.421875 2.125 -2.953125q0.703125 -1.5468826 0.703125 -3.2343826q0 -3.484375 -2.828125 -6.265625l0.765625 -0.78125zm7.2143555 12.406258q0.375 0.015625 0.71875 -0.0625q0.359375 -0.078125 0.625 -0.234375q0.265625 -0.15625 0.421875 -0.390625q0.171875 -0.234375 0.171875 -0.546875q0 -0.296875 -0.109375 -0.484375q-0.109375 -0.203125 -0.25 -0.359375q-0.125 -0.15625 -0.234375 -0.34375q-0.09375 -0.1875 -0.09375 -0.484375q0 -0.15625 0.046875 -0.328125q0.0625 -0.171875 0.1875 -0.31250763q0.125 -0.140625 0.3125 -0.21875q0.1875 -0.09375 0.4375 -0.09375q0.265625 0 0.5 0.109375q0.234375 0.109375 0.40625 0.32813263q0.1875 0.21875 0.296875 0.546875q0.109375 0.328125 0.109375 0.78125q0 0.59375 -0.234375 1.15625q-0.21875 0.5625 -0.671875 1.0q-0.4375 0.4375 -1.109375 0.6875q-0.65625 0.25 -1.53125 0.25l0 -1.0zm2.296875 -8.984383q0.21875 0 0.421875 0.09375q0.21875 0.09375 0.359375 0.25q0.15625 0.140625 0.25 0.359375q0.09375 0.203125 0.09375 0.421875q0 0.234375 -0.09375 0.4375q-0.09375 0.203125 -0.25 0.359375q-0.140625 0.15625 -0.359375 0.25q-0.203125 0.078125 -0.421875 0.078125q-0.234375 0 -0.4375 -0.078125q-0.203125 -0.09375 -0.359375 -0.25q-0.15625 -0.15625 -0.25 -0.359375q-0.078125 -0.203125 -0.078125 -0.4375q0 -0.21875 0.078125 -0.421875q0.09375 -0.21875 0.25 -0.359375q0.15625 -0.15625 0.359375 -0.25q0.203125 -0.09375 0.4375 -0.09375z" fill-rule="nonzero"></path><path fill="#666666" d="m355.29886 155.23367l150.80316 0l0 4.5984344l-150.80316 0z" fill-rule="nonzero"></path><path stroke="#000000" stroke-width="1.0" stroke-linejoin="round" stroke-linecap="butt" d="m355.29886 155.23367l150.80316 0l0 4.5984344l-150.80316 0z" fill-rule="nonzero"></path><path fill="#f3f3f3" d="m367.22186 106.50926l126.96063 0l0 36.850403l-126.96063 0z" fill-rule="nonzero"></path><path stroke="#000000" stroke-width="1.0" stroke-linejoin="round" stroke-linecap="butt" d="m367.22186 106.50926l126.96063 0l0 36.850403l-126.96063 0z" fill-rule="nonzero"></path><path fill="#000000" d="m406.173 120.85821q-1.015625 -0.21875 -1.734375 -0.21875q-1.71875 0 -1.71875 1.796875l0 1.296875l3.21875 0l0 1.0625l-3.21875 0l0 5.2187576l-1.296875 0l0 -5.2187576l-2.359375 0l0 -1.0625l2.359375 0l0 -1.21875q0 -2.9375 3.0625 -2.9375q0.765625 0 1.6875 0.171875l0 1.109375zm-7.703125 1.796875l0 0zm13.9487 7.3593826l-0.03125 -0.984375q-0.59375 0.59375 -1.21875 0.859375q-0.609375 0.25 -1.296875 0.25q-0.625 0 -1.078125 -0.15625q-0.4375 -0.15625 -0.734375 -0.4375q-0.28125 -0.28125 -0.421875 -0.65625q-0.140625 -0.390625 -0.140625 -0.84375q0 -1.0937576 0.828125 -1.7187576q0.828125 -0.640625 2.4375 -0.640625l1.515625 0l0 -0.640625q0 -0.65625 -0.421875 -1.046875q-0.40625 -0.390625 -1.265625 -0.390625q-0.625 0 -1.234375 0.140625q-0.59375 0.140625 -1.234375 0.40625l0 -1.15625q0.234375 -0.09375 0.53125 -0.171875q0.296875 -0.078125 0.625 -0.140625q0.328125 -0.078125 0.6875 -0.109375q0.359375 -0.046875 0.734375 -0.046875q0.65625 0 1.1875 0.15625q0.546875 0.140625 0.90625 0.4375q0.375 0.296875 0.5625 0.75q0.203125 0.453125 0.203125 1.078125l0 5.0625076l-1.140625 0zm-0.140625 -3.3437576l-1.609375 0q-0.484375 0 -0.828125 0.09375q-0.34375 0.09375 -0.5625 0.265625q-0.21875 0.171875 -0.328125 0.421875q-0.09375 0.25 -0.09375 0.5625076q0 0.203125 0.0625 0.40625q0.0625 0.1875 0.203125 0.34375q0.15625 0.140625 0.390625 0.234375q0.234375 0.078125 0.5625 0.078125q0.4375 0 1.0 -0.265625q0.578125 -0.265625 1.203125 -0.8437576l0 -1.296875zm9.1987 3.0781326q-0.5 0.1875 -1.03125 0.28125q-0.515625 0.09375 -1.078125 0.09375q-1.734375 0 -2.6875 -0.9375q-0.9375 -0.953125 -0.9375 -2.7812576q0 -0.859375 0.265625 -1.5625q0.28125 -0.71875 0.765625 -1.21875q0.5 -0.515625 1.171875 -0.78125q0.6875 -0.28125 1.5 -0.28125q0.578125 0 1.078125 0.078125q0.5 0.078125 0.953125 0.265625l0 1.21875q-0.484375 -0.25 -0.984375 -0.359375q-0.484375 -0.125 -1.015625 -0.125q-0.484375 0 -0.921875 0.1875q-0.4375 0.1875 -0.765625 0.546875q-0.328125 0.34375 -0.53125 0.859375q-0.1875 0.5 -0.1875 1.140625q0 1.328125 0.640625 2.0000076q0.65625 0.65625 1.8125 0.65625q0.515625 0 1.0 -0.109375q0.5 -0.125 0.953125 -0.359375l0 1.1875zm8.2612 0.15625q-0.421875 0.109375 -0.890625 0.15625q-0.453125 0.0625 -0.9375 0.0625q-1.390625 0 -2.078125 -0.625q-0.671875 -0.640625 -0.671875 -1.9375076l0 -3.828125l-2.046875 0l0 -1.078125l2.046875 0l0 -2.015625l1.28125 -0.328125l0 2.34375l3.296875 0l0 1.078125l-3.296875 0l0 3.734375q0 0.7812576 0.421875 1.1875076q0.421875 0.390625 1.234375 0.390625q0.359375 0 0.765625 -0.046875q0.421875 -0.0625 0.875 -0.1875l0 1.09375zm6.54245 3.1875q-3.375 -3.125 -3.375 -6.9218826q0 -0.875 0.171875 -1.75q0.1875 -0.890625 0.578125 -1.78125q0.40625 -0.890625 1.0625 -1.765625q0.65625 -0.890625 1.59375 -1.765625l0.734375 0.75q-2.84375 2.8125 -2.84375 6.21875q0 1.703125 0.71875 3.2812576q0.71875 1.5625 2.125 2.953125l-0.765625 0.78125zm9.683075 -5.9843826q0 0.625 -0.265625 1.1875076q-0.25 0.546875 -0.765625 0.96875q-0.515625 0.40625 -1.296875 0.640625q-0.765625 0.234375 -1.796875 0.234375q-0.578125 0 -1.03125 -0.03125q-0.453125 -0.03125 -0.84375 -0.09375l0 -1.140625q0.453125 0.078125 0.953125 0.125q0.515625 0.046875 1.03125 0.046875q0.71875 0 1.21875 -0.125q0.515625 -0.140625 0.84375 -0.375q0.328125 -0.25 0.46875 -0.5937576q0.140625 -0.34375 0.140625 -0.765625q0 -0.40625 -0.171875 -0.6875q-0.171875 -0.296875 -0.5 -0.5q-0.3125 -0.203125 -0.765625 -0.296875q-0.4375 -0.09375 -0.953125 -0.09375l-1.09375 0l0 -1.046875l1.109375 0q0.421875 0 0.78125 -0.109375q0.359375 -0.125 0.609375 -0.328125q0.25 -0.21875 0.375 -0.53125q0.140625 -0.3125 0.140625 -0.703125q0 -0.765625 -0.46875 -1.109375q-0.46875 -0.359375 -1.375 -0.359375q-0.484375 0 -1.0 0.09375q-0.5 0.09375 -1.09375 0.28125l0 -1.109375q0.25 -0.09375 0.53125 -0.15625q0.28125 -0.078125 0.5625 -0.125q0.28125 -0.046875 0.5625 -0.0625q0.28125 -0.03125 0.53125 -0.03125q0.765625 0 1.34375 0.171875q0.578125 0.15625 0.96875 0.46875q0.390625 0.296875 0.578125 0.75q0.203125 0.4375 0.203125 0.984375q0 0.8125 -0.421875 1.375q-0.421875 0.5625 -1.15625 0.890625q0.375 0.046875 0.734375 0.234375q0.375 0.171875 0.65625 0.453125q0.296875 0.265625 0.46875 0.640625q0.1875 0.375 0.1875 0.828125zm3.526825 -8.0q3.375 3.125 3.375 6.953125q0 0.796875 -0.15625 1.65625q-0.15625 0.8437576 -0.546875 1.7343826q-0.390625 0.890625 -1.046875 1.796875q-0.65625 0.921875 -1.65625 1.84375l-0.734375 -0.75q1.421875 -1.421875 2.125 -2.953125q0.703125 -1.5468826 0.703125 -3.2343826q0 -3.484375 -2.828125 -6.265625l0.765625 -0.78125zm7.214325 12.406258q0.375 0.015625 0.71875 -0.0625q0.359375 -0.078125 0.625 -0.234375q0.265625 -0.15625 0.421875 -0.390625q0.171875 -0.234375 0.171875 -0.546875q0 -0.296875 -0.109375 -0.484375q-0.109375 -0.203125 -0.25 -0.359375q-0.125 -0.15625 -0.234375 -0.34375q-0.09375 -0.1875 -0.09375 -0.484375q0 -0.15625 0.046875 -0.328125q0.0625 -0.171875 0.1875 -0.31250763q0.125 -0.140625 0.3125 -0.21875q0.1875 -0.09375 0.4375 -0.09375q0.265625 0 0.5 0.109375q0.234375 0.109375 0.40625 0.32813263q0.1875 0.21875 0.296875 0.546875q0.109375 0.328125 0.109375 0.78125q0 0.59375 -0.234375 1.15625q-0.21875 0.5625 -0.671875 1.0q-0.4375 0.4375 -1.109375 0.6875q-0.65625 0.25 -1.53125 0.25l0 -1.0zm2.296875 -8.984383q0.21875 0 0.421875 0.09375q0.21875 0.09375 0.359375 0.25q0.15625 0.140625 0.25 0.359375q0.09375 0.203125 0.09375 0.421875q0 0.234375 -0.09375 0.4375q-0.09375 0.203125 -0.25 0.359375q-0.140625 0.15625 -0.359375 0.25q-0.203125 0.078125 -0.421875 0.078125q-0.234375 0 -0.4375 -0.078125q-0.203125 -0.09375 -0.359375 -0.25q-0.15625 -0.15625 -0.25 -0.359375q-0.078125 -0.203125 -0.078125 -0.4375q0 -0.21875 0.078125 -0.421875q0.09375 -0.21875 0.25 -0.359375q0.15625 -0.15625 0.359375 -0.25q0.203125 -0.09375 0.4375 -0.09375z" fill-rule="nonzero"></path><path fill="#f3f3f3" d="m367.21567 57.784855l126.96063 0l0 36.85039l-126.96063 0z" fill-rule="nonzero"></path><path stroke="#000000" stroke-width="1.0" stroke-linejoin="round" stroke-linecap="butt" d="m367.21567 57.784855l126.96063 0l0 36.85039l-126.96063 0z" fill-rule="nonzero"></path><path fill="#000000" d="m406.1668 72.133804q-1.015625 -0.21875 -1.734375 -0.21875q-1.71875 0 -1.71875 1.796875l0 1.296875l3.21875 0l0 1.0625l-3.21875 0l0 5.21875l-1.296875 0l0 -5.21875l-2.359375 0l0 -1.0625l2.359375 0l0 -1.21875q0 -2.9375 3.0625 -2.9375q0.765625 0 1.6875 0.171875l0 1.109375zm-7.703125 1.796875l0 0zm13.9487 7.359375l-0.03125 -0.984375q-0.59375 0.59375 -1.21875 0.859375q-0.609375 0.25 -1.296875 0.25q-0.625 0 -1.078125 -0.15625q-0.4375 -0.15625 -0.734375 -0.4375q-0.28125 -0.28125 -0.421875 -0.65625q-0.140625 -0.390625 -0.140625 -0.84375q0 -1.09375 0.828125 -1.71875q0.828125 -0.640625 2.4375 -0.640625l1.515625 0l0 -0.640625q0 -0.65625 -0.421875 -1.046875q-0.40625 -0.390625 -1.265625 -0.390625q-0.625 0 -1.234375 0.140625q-0.59375 0.140625 -1.234375 0.40625l0 -1.15625q0.234375 -0.09375 0.53125 -0.171875q0.296875 -0.078125 0.625 -0.140625q0.328125 -0.078125 0.6875 -0.109375q0.359375 -0.046875 0.734375 -0.046875q0.65625 0 1.1875 0.15625q0.546875 0.140625 0.90625 0.4375q0.375 0.296875 0.5625 0.75q0.203125 0.453125 0.203125 1.078125l0 5.0625l-1.140625 0zm-0.140625 -3.34375l-1.609375 0q-0.484375 0 -0.828125 0.09375q-0.34375 0.09375 -0.5625 0.265625q-0.21875 0.171875 -0.328125 0.421875q-0.09375 0.25 -0.09375 0.5625q0 0.203125 0.0625 0.40625q0.0625 0.1875 0.203125 0.34375q0.15625 0.140625 0.390625 0.234375q0.234375 0.078125 0.5625 0.078125q0.4375 0 1.0 -0.265625q0.578125 -0.265625 1.203125 -0.84375l0 -1.296875zm9.1987 3.078125q-0.5 0.1875 -1.03125 0.28125q-0.515625 0.09375 -1.078125 0.09375q-1.734375 0 -2.6875 -0.9375q-0.9375 -0.953125 -0.9375 -2.78125q0 -0.859375 0.265625 -1.5625q0.28125 -0.71875 0.765625 -1.21875q0.5 -0.515625 1.171875 -0.78125q0.6875 -0.28125 1.5 -0.28125q0.578125 0 1.078125 0.078125q0.5 0.078125 0.953125 0.265625l0 1.21875q-0.484375 -0.25 -0.984375 -0.359375q-0.484375 -0.125 -1.015625 -0.125q-0.484375 0 -0.921875 0.1875q-0.4375 0.1875 -0.765625 0.546875q-0.328125 0.34375 -0.53125 0.859375q-0.1875 0.5 -0.1875 1.140625q0 1.328125 0.640625 2.0q0.65625 0.65625 1.8125 0.65625q0.515625 0 1.0 -0.109375q0.5 -0.125 0.953125 -0.359375l0 1.1875zm8.2612 0.15625q-0.421875 0.109375 -0.890625 0.15625q-0.453125 0.0625 -0.9375 0.0625q-1.390625 0 -2.078125 -0.625q-0.671875 -0.640625 -0.671875 -1.9375l0 -3.828125l-2.046875 0l0 -1.078125l2.046875 0l0 -2.015625l1.28125 -0.328125l0 2.34375l3.296875 0l0 1.078125l-3.296875 0l0 3.734375q0 0.78125 0.421875 1.1875q0.421875 0.390625 1.234375 0.390625q0.359375 0 0.765625 -0.046875q0.421875 -0.0625 0.875 -0.1875l0 1.09375zm6.54245 3.1875q-3.375 -3.125 -3.375 -6.921875q0 -0.875 0.171875 -1.75q0.1875 -0.890625 0.578125 -1.78125q0.40625 -0.890625 1.0625 -1.765625q0.65625 -0.890625 1.59375 -1.765625l0.734375 0.75q-2.84375 2.8125 -2.84375 6.21875q0 1.703125 0.71875 3.28125q0.71875 1.5625 2.125 2.953125l-0.765625 0.78125zm9.870575 -3.078125l-6.3125 0l0 -1.140625l2.46875 -2.46875q0.609375 -0.59375 0.984375 -1.03125q0.390625 -0.4375 0.59375 -0.796875q0.21875 -0.375 0.296875 -0.6875q0.078125 -0.328125 0.078125 -0.703125q0 -0.34375 -0.109375 -0.65625q-0.09375 -0.328125 -0.296875 -0.5625q-0.1875 -0.25 -0.5 -0.390625q-0.3125 -0.140625 -0.75 -0.140625q-0.609375 0 -1.109375 0.28125q-0.5 0.265625 -0.921875 0.6875l-0.703125 -0.828125q0.546875 -0.578125 1.25 -0.921875q0.703125 -0.34375 1.640625 -0.34375q0.640625 0 1.15625 0.1875q0.53125 0.1875 0.90625 0.546875q0.390625 0.359375 0.59375 0.890625q0.21875 0.515625 0.21875 1.15625q0 0.5625 -0.15625 1.03125q-0.140625 0.46875 -0.4375 0.9375q-0.296875 0.453125 -0.75 0.953125q-0.453125 0.5 -1.0625 1.09375l-1.734375 1.6875l4.65625 0l0 1.21875zm3.339325 -10.90625q3.375 3.125 3.375 6.953125q0 0.796875 -0.15625 1.65625q-0.15625 0.84375 -0.546875 1.734375q-0.390625 0.890625 -1.046875 1.796875q-0.65625 0.921875 -1.65625 1.84375l-0.734375 -0.75q1.421875 -1.421875 2.125 -2.953125q0.703125 -1.546875 0.703125 -3.234375q0 -3.484375 -2.828125 -6.265625l0.765625 -0.78125zm7.214325 12.40625q0.375 0.015625 0.71875 -0.0625q0.359375 -0.078125 0.625 -0.234375q0.265625 -0.15625 0.421875 -0.390625q0.171875 -0.234375 0.171875 -0.546875q0 -0.296875 -0.109375 -0.484375q-0.109375 -0.203125 -0.25 -0.359375q-0.125 -0.15625 -0.234375 -0.34375q-0.09375 -0.1875 -0.09375 -0.484375q0 -0.15625 0.046875 -0.328125q0.0625 -0.171875 0.1875 -0.3125q0.125 -0.140625 0.3125 -0.21875q0.1875 -0.09375 0.4375 -0.09375q0.265625 0 0.5 0.109375q0.234375 0.109375 0.40625 0.328125q0.1875 0.21875 0.296875 0.546875q0.109375 0.328125 0.109375 0.78125q0 0.59375 -0.234375 1.15625q-0.21875 0.5625 -0.671875 1.0q-0.4375 0.4375 -1.109375 0.6875q-0.65625 0.25 -1.53125 0.25l0 -1.0zm2.296875 -8.984375q0.21875 0 0.421875 0.09375q0.21875 0.09375 0.359375 0.25q0.15625 0.140625 0.25 0.359375q0.09375 0.203125 0.09375 0.421875q0 0.234375 -0.09375 0.4375q-0.09375 0.203125 -0.25 0.359375q-0.140625 0.15625 -0.359375 0.25q-0.203125 0.078125 -0.421875 0.078125q-0.234375 0 -0.4375 -0.078125q-0.203125 -0.09375 -0.359375 -0.25q-0.15625 -0.15625 -0.25 -0.359375q-0.078125 -0.203125 -0.078125 -0.4375q0 -0.21875 0.078125 -0.421875q0.09375 -0.21875 0.25 -0.359375q0.15625 -0.15625 0.359375 -0.25q0.203125 -0.09375 0.4375 -0.09375z" fill-rule="nonzero"></path><path fill="#000000" fill-opacity="0.0" d="m669.8635 28.834646l12.141724 0l0 -6.629921l6.629944 6.629921l-6.629944 6.629919l0 -6.629919l-12.141724 0z" fill-rule="nonzero"></path><path stroke="#000000" stroke-width="1.0" stroke-linejoin="round" stroke-linecap="butt" d="m669.8635 28.834646l12.141724 0l0 -6.629921l6.629944 6.629921l-6.629944 6.629919l0 -6.629919l-12.141724 0z" fill-rule="nonzero"></path><path fill="#000000" fill-opacity="0.0" d="m683.96326 9.784698l25.417297 0l0 22.929134l-25.417297 0z" fill-rule="nonzero"></path><path fill="#000000" d="m700.26013 32.864697l-6.0 0l0 -1.1874981l2.453125 0l0 -6.984375l-2.296875 1.25l-0.46875 -1.09375l3.046875 -1.59375l1.125 0l0 8.421875l2.140625 0l0 1.1874981z" fill-rule="nonzero"></path><path fill="#000000" fill-opacity="0.0" d="m841.7034 76.83465l12.141724 0l0 -6.629921l6.629883 6.629921l-6.629883 6.629921l0 -6.629921l-12.141724 0z" fill-rule="nonzero"></path><path stroke="#000000" stroke-width="1.0" stroke-linejoin="round" stroke-linecap="butt" d="m841.7034 76.83465l12.141724 0l0 -6.629921l6.629883 6.629921l-6.629883 6.629921l0 -6.629921l-12.141724 0z" fill-rule="nonzero"></path><path fill="#000000" fill-opacity="0.0" d="m855.80316 57.78478l48.125977 0l0 22.929134l-48.125977 0z" fill-rule="nonzero"></path><path fill="#000000" d="m872.1938 80.86478l-6.3125 0l0 -1.140625l2.46875 -2.46875q0.609375 -0.59375 0.984375 -1.03125q0.390625 -0.4375 0.59375 -0.796875q0.21875 -0.375 0.296875 -0.6875q0.078125 -0.328125 0.078125 -0.703125q0 -0.34375 -0.109375 -0.65625q-0.09375 -0.328125 -0.296875 -0.5625q-0.1875 -0.25 -0.5 -0.390625q-0.3125 -0.140625 -0.75 -0.140625q-0.609375 0 -1.109375 0.28125q-0.5 0.265625 -0.921875 0.6875l-0.703125 -0.828125q0.546875 -0.578125 1.25 -0.921875q0.703125 -0.34375 1.640625 -0.34375q0.640625 0 1.15625 0.1875q0.53125 0.1875 0.90625 0.546875q0.390625 0.359375 0.59375 0.890625q0.21875 0.515625 0.21875 1.15625q0 0.5625 -0.15625 1.03125q-0.140625 0.46875 -0.4375 0.9375q-0.296875 0.453125 -0.75 0.953125q-0.453125 0.5 -1.0625 1.09375l-1.734375 1.6875l4.65625 0l0 1.21875z" fill-rule="nonzero"></path><path fill="#000000" fill-opacity="0.0" d="m1013.54333 125.55905l12.141724 0l0 -6.629921l6.629883 6.629921l-6.629883 6.6299286l0 -6.6299286l-12.141724 0z" fill-rule="nonzero"></path><path stroke="#000000" stroke-width="1.0" stroke-linejoin="round" stroke-linecap="butt" d="m1013.54333 125.55905l12.141724 0l0 -6.629921l6.629883 6.629921l-6.629883 6.6299286l0 -6.6299286l-12.141724 0z" fill-rule="nonzero"></path><path fill="#000000" fill-opacity="0.0" d="m1027.6431 106.50911l25.417358 0l0 22.929138l-25.417358 0z" fill-rule="nonzero"></path><path fill="#000000" d="m1044.1431 126.55785q0 0.65625 -0.234375 1.234375q-0.234375 0.5781326 -0.6875 1.0156326q-0.4375 0.421875 -1.0625 0.671875q-0.609375 0.234375 -1.359375 0.234375q-0.796875 0 -1.40625 -0.25q-0.609375 -0.25 -1.015625 -0.765625q-0.40625 -0.53125 -0.625 -1.3281326q-0.203125 -0.796875 -0.203125 -1.890625q0 -0.734375 0.09375 -1.421875q0.09375 -0.6875 0.3125 -1.296875q0.21875 -0.609375 0.578125 -1.109375q0.375 -0.5 0.921875 -0.859375q0.546875 -0.375 1.28125 -0.578125q0.734375 -0.203125 1.71875 -0.203125l0.9375 0l0 1.125l-1.015625 0q-0.859375 0 -1.5 0.203125q-0.625 0.203125 -1.046875 0.578125q-0.421875 0.375 -0.65625 0.90625q-0.21875 0.515625 -0.28125 1.171875l-0.03125 0.296875q0.46875 -0.265625 1.0625 -0.421875q0.609375 -0.171875 1.3125 -0.171875q0.71875 0 1.265625 0.21875q0.546875 0.203125 0.90625 0.578125q0.375 0.375 0.546875 0.90625q0.1875 0.53125 0.1875 1.15625zm-1.328125 0.078125q0 -0.4375 -0.109375 -0.796875q-0.109375 -0.359375 -0.34375 -0.59375q-0.21875 -0.25 -0.5625 -0.375q-0.34375 -0.140625 -0.828125 -0.140625q-0.28125 0 -0.578125 0.046875q-0.28125 0.046875 -0.5625 0.140625q-0.265625 0.09375 -0.515625 0.21875q-0.25 0.109375 -0.453125 0.234375q0 0.953125 0.125 1.59375q0.140625 0.625 0.390625 1.015625q0.265625 0.37500763 0.640625 0.5312576q0.390625 0.15625 0.890625 0.15625q0.421875 0 0.765625 -0.125q0.34375 -0.140625 0.59375 -0.40625q0.25 -0.26563263 0.390625 -0.6406326q0.15625 -0.375 0.15625 -0.859375z" fill-rule="nonzero"></path></g></svg>

