<?xml version="1.0" standalone="yes"?>

<svg version="1.1" viewBox="0.0 0.0 913.5301837270341 315.59317585301835" fill="none" stroke="none" stroke-linecap="square" stroke-miterlimit="10" xmlns="http://www.w3.org/2000/svg" xmlns:xlink="http://www.w3.org/1999/xlink"><clipPath id="p.0"><path d="m0 0l913.5302 0l0 315.59317l-913.5302 0l0 -315.59317z" clip-rule="nonzero"></path></clipPath><g clip-path="url(#p.0)"><path fill="#000000" fill-opacity="0.0" d="m0 0l913.5302 0l0 315.59317l-913.5302 0z" fill-rule="nonzero"></path><path fill="#666666" d="m18.540682 117.80052l241.5433 0l0 4.598427l-241.5433 0z" fill-rule="nonzero"></path><path stroke="#000000" stroke-width="1.0" stroke-linejoin="round" stroke-linecap="butt" d="m18.540682 117.80052l241.5433 0l0 4.598427l-241.5433 0z" fill-rule="nonzero"></path><path fill="#f3f3f3" d="m37.63868 69.07612l203.37009 0l0 36.850388l-203.37009 0z" fill-rule="nonzero"></path><path stroke="#000000" stroke-width="1.0" stroke-linejoin="round" stroke-linecap="butt" d="m37.63868 69.07612l203.37009 0l0 36.850388l-203.37009 0z" fill-rule="nonzero"></path><path fill="#000000" d="m105.455215 92.581314l0 -5.28125q0 -0.34375 -0.03125 -0.5625q-0.03125 -0.21875 -0.09375 -0.34375q-0.046875 -0.140625 -0.125 -0.1875q-0.078125 -0.046875 -0.203125 -0.046875q-0.15625 0 -0.28125 0.09375q-0.125 0.078125 -0.265625 0.28125q-0.140625 0.1875 -0.3125 0.515625q-0.171875 0.328125 -0.40625 0.8125l0 4.71875l-1.171875 0l0 -5.140625q0 -0.40625 -0.03125 -0.65625q-0.015625 -0.25 -0.078125 -0.390625q-0.046875 -0.140625 -0.140625 -0.1875q-0.078125 -0.046875 -0.203125 -0.046875q-0.140625 0 -0.265625 0.078125q-0.109375 0.0625 -0.25 0.265625q-0.140625 0.1875 -0.3125 0.515625q-0.171875 0.328125 -0.421875 0.84375l0 4.71875l-1.171875 0l0 -7.359375l0.984375 0l0.046875 1.40625q0.1875 -0.421875 0.359375 -0.703125q0.1875 -0.296875 0.375 -0.46875q0.203125 -0.1875 0.40625 -0.265625q0.21875 -0.09375 0.484375 -0.09375q0.59375 0 0.90625 0.390625q0.3125 0.390625 0.3125 1.203125q0.171875 -0.390625 0.34375 -0.6875q0.171875 -0.296875 0.359375 -0.484375q0.1875 -0.203125 0.421875 -0.3125q0.234375 -0.109375 0.546875 -0.109375q1.390625 0 1.390625 2.125l0 5.359375l-1.171875 0zm7.526825 0l-0.03125 -0.984375q-0.59375 0.59375 -1.21875 0.859375q-0.609375 0.25 -1.296875 0.25q-0.625 0 -1.078125 -0.15625q-0.4375 -0.15625 -0.734375 -0.4375q-0.28125 -0.28125 -0.421875 -0.65625q-0.140625 -0.390625 -0.140625 -0.84375q0 -1.09375 0.828125 -1.71875q0.828125 -0.640625 2.4375 -0.640625l1.515625 0l0 -0.640625q0 -0.65625 -0.421875 -1.046875q-0.40625 -0.390625 -1.265625 -0.390625q-0.625 0 -1.234375 0.140625q-0.59375 0.140625 -1.234375 0.40625l0 -1.15625q0.234375 -0.09375 0.53125 -0.171875q0.296875 -0.078125 0.625 -0.140625q0.328125 -0.078125 0.6875 -0.109375q0.359375 -0.046875 0.734375 -0.046875q0.65625 0 1.1875 0.15625q0.546875 0.140625 0.90625 0.4375q0.375 0.296875 0.5625 0.75q0.203125 0.453125 0.203125 1.078125l0 5.0625l-1.140625 0zm-0.140625 -3.34375l-1.609375 0q-0.484375 0 -0.828125 0.09375q-0.34375 0.09375 -0.5625 0.265625q-0.21875 0.171875 -0.328125 0.421875q-0.09375 0.25 -0.09375 0.5625q0 0.203125 0.0625 0.40625q0.0625 0.1875 0.203125 0.34375q0.15625 0.140625 0.390625 0.234375q0.234375 0.078125 0.5625 0.078125q0.4375 0 1.0 -0.265625q0.578125 -0.265625 1.203125 -0.84375l0 -1.296875zm5.97995 -2.953125l-2.171875 0l0 -1.0625l3.46875 0l0 6.296875l2.1875 0l0 1.0625l-5.890625 0l0 -1.0625l2.40625 0l0 -5.234375zm0.453125 -4.140625q0.21875 0 0.390625 0.078125q0.1875 0.078125 0.3125 0.21875q0.140625 0.140625 0.21875 0.328125q0.078125 0.171875 0.078125 0.375q0 0.203125 -0.078125 0.390625q-0.078125 0.1875 -0.21875 0.328125q-0.125 0.140625 -0.3125 0.21875q-0.171875 0.0625 -0.390625 0.0625q-0.21875 0 -0.40625 -0.0625q-0.171875 -0.078125 -0.3125 -0.21875q-0.125 -0.140625 -0.203125 -0.328125q-0.078125 -0.1875 -0.078125 -0.390625q0 -0.203125 0.078125 -0.375q0.078125 -0.1875 0.203125 -0.328125q0.140625 -0.140625 0.3125 -0.21875q0.1875 -0.078125 0.40625 -0.078125zm5.10495 3.078125l1.140625 0l0.046875 1.1875q0.328125 -0.375 0.625 -0.625q0.296875 -0.25 0.578125 -0.40625q0.296875 -0.15625 0.59375 -0.21875q0.296875 -0.0625 0.625 -0.0625q1.140625 0 1.71875 0.671875q0.578125 0.671875 0.578125 2.015625l0 4.796875l-1.265625 0l0 -4.6875q0 -0.875 -0.328125 -1.28125q-0.328125 -0.421875 -0.953125 -0.421875q-0.234375 0 -0.46875 0.078125q-0.21875 0.0625 -0.46875 0.234375q-0.234375 0.171875 -0.515625 0.46875q-0.28125 0.296875 -0.625 0.734375l0 4.875l-1.28125 0l0 -7.359375zm12.464325 10.4375q-3.375 -3.125 -3.375 -6.921875q0 -0.875 0.171875 -1.75q0.1875 -0.890625 0.578125 -1.78125q0.40625 -0.890625 1.0625 -1.765625q0.65625 -0.890625 1.59375 -1.765625l0.734375 0.75q-2.84375 2.8125 -2.84375 6.21875q0 1.703125 0.71875 3.28125q0.71875 1.5625 2.125 2.953125l-0.765625 0.78125zm9.683075 -5.984375q0 0.625 -0.265625 1.1875q-0.25 0.546875 -0.765625 0.96875q-0.515625 0.40625 -1.296875 0.640625q-0.765625 0.234375 -1.796875 0.234375q-0.578125 0 -1.03125 -0.03125q-0.453125 -0.03125 -0.84375 -0.09375l0 -1.140625q0.453125 0.078125 0.953125 0.125q0.515625 0.046875 1.03125 0.046875q0.71875 0 1.21875 -0.125q0.515625 -0.140625 0.84375 -0.375q0.328125 -0.25 0.46875 -0.59375q0.140625 -0.34375 0.140625 -0.765625q0 -0.40625 -0.171875 -0.6875q-0.171875 -0.296875 -0.5 -0.5q-0.3125 -0.203125 -0.765625 -0.296875q-0.4375 -0.09375 -0.953125 -0.09375l-1.09375 0l0 -1.046875l1.109375 0q0.421875 0 0.78125 -0.109375q0.359375 -0.125 0.609375 -0.328125q0.25 -0.21875 0.375 -0.53125q0.140625 -0.3125 0.140625 -0.703125q0 -0.765625 -0.46875 -1.109375q-0.46875 -0.359375 -1.375 -0.359375q-0.484375 0 -1.0 0.09375q-0.5 0.09375 -1.09375 0.28125l0 -1.109375q0.25 -0.09375 0.53125 -0.15625q0.28125 -0.078125 0.5625 -0.125q0.28125 -0.046875 0.5625 -0.0625q0.28125 -0.03125 0.53125 -0.03125q0.765625 0 1.34375 0.171875q0.578125 0.15625 0.96875 0.46875q0.390625 0.296875 0.578125 0.75q0.203125 0.4375 0.203125 0.984375q0 0.8125 -0.421875 1.375q-0.421875 0.5625 -1.15625 0.890625q0.375 0.046875 0.734375 0.234375q0.375 0.171875 0.65625 0.453125q0.296875 0.265625 0.46875 0.640625q0.1875 0.375 0.1875 0.828125zm2.60495 4.40625q0.359375 0.015625 0.703125 -0.0625q0.359375 -0.078125 0.625 -0.234375q0.28125 -0.15625 0.4375 -0.390625q0.15625 -0.234375 0.15625 -0.546875q0 -0.296875 -0.109375 -0.484375q-0.09375 -0.203125 -0.234375 -0.359375q-0.125 -0.15625 -0.234375 -0.34375q-0.109375 -0.1875 -0.109375 -0.484375q0 -0.15625 0.0625 -0.328125q0.0625 -0.171875 0.171875 -0.3125q0.125 -0.140625 0.3125 -0.21875q0.1875 -0.09375 0.453125 -0.09375q0.25 0 0.484375 0.109375q0.234375 0.109375 0.40625 0.328125q0.1875 0.21875 0.296875 0.546875q0.109375 0.328125 0.109375 0.78125q0 0.59375 -0.234375 1.15625q-0.21875 0.5625 -0.65625 1.0q-0.4375 0.4375 -1.109375 0.6875q-0.65625 0.25 -1.53125 0.25l0 -1.0zm13.6987 -1.5l-6.3125 0l0 -1.140625l2.46875 -2.46875q0.609375 -0.59375 0.984375 -1.03125q0.390625 -0.4375 0.59375 -0.796875q0.21875 -0.375 0.296875 -0.6875q0.078125 -0.328125 0.078125 -0.703125q0 -0.34375 -0.109375 -0.65625q-0.09375 -0.328125 -0.296875 -0.5625q-0.1875 -0.25 -0.5 -0.390625q-0.3125 -0.140625 -0.75 -0.140625q-0.609375 0 -1.109375 0.28125q-0.5 0.265625 -0.921875 0.6875l-0.703125 -0.828125q0.546875 -0.578125 1.25 -0.921875q0.703125 -0.34375 1.640625 -0.34375q0.640625 0 1.15625 0.1875q0.53125 0.1875 0.90625 0.546875q0.390625 0.359375 0.59375 0.890625q0.21875 0.515625 0.21875 1.15625q0 0.5625 -0.15625 1.03125q-0.140625 0.46875 -0.4375 0.9375q-0.296875 0.453125 -0.75 0.953125q-0.453125 0.5 -1.0625 1.09375l-1.734375 1.6875l4.65625 0l0 1.21875zm3.3393097 -10.90625q3.375 3.125 3.375 6.953125q0 0.796875 -0.15625 1.65625q-0.15625 0.84375 -0.546875 1.734375q-0.390625 0.890625 -1.046875 1.796875q-0.65625 0.921875 -1.65625 1.84375l-0.73435974 -0.75q1.4218597 -1.421875 2.1249847 -2.953125q0.703125 -1.546875 0.703125 -3.234375q0 -3.484375 -2.8281097 -6.265625l0.76560974 -0.78125zm7.214325 12.40625q0.375 0.015625 0.71875 -0.0625q0.359375 -0.078125 0.625 -0.234375q0.265625 -0.15625 0.421875 -0.390625q0.171875 -0.234375 0.171875 -0.546875q0 -0.296875 -0.109375 -0.484375q-0.109375 -0.203125 -0.25 -0.359375q-0.125 -0.15625 -0.234375 -0.34375q-0.09375 -0.1875 -0.09375 -0.484375q0 -0.15625 0.046875 -0.328125q0.0625 -0.171875 0.1875 -0.3125q0.125 -0.140625 0.3125 -0.21875q0.1875 -0.09375 0.4375 -0.09375q0.265625 0 0.5 0.109375q0.234375 0.109375 0.40625 0.328125q0.1875 0.21875 0.296875 0.546875q0.109375 0.328125 0.109375 0.78125q0 0.59375 -0.234375 1.15625q-0.21875 0.5625 -0.671875 1.0q-0.4375 0.4375 -1.109375 0.6875q-0.65625 0.25 -1.53125 0.25l0 -1.0zm2.296875 -8.984375q0.21875 0 0.421875 0.09375q0.21875 0.09375 0.359375 0.25q0.15625 0.140625 0.25 0.359375q0.09375 0.203125 0.09375 0.421875q0 0.234375 -0.09375 0.4375q-0.09375 0.203125 -0.25 0.359375q-0.140625 0.15625 -0.359375 0.25q-0.203125 0.078125 -0.421875 0.078125q-0.234375 0 -0.4375 -0.078125q-0.203125 -0.09375 -0.359375 -0.25q-0.15625 -0.15625 -0.25 -0.359375q-0.078125 -0.203125 -0.078125 -0.4375q0 -0.21875 0.078125 -0.421875q0.09375 -0.21875 0.25 -0.359375q0.15625 -0.15625 0.359375 -0.25q0.203125 -0.09375 0.4375 -0.09375z" fill-rule="nonzero"></path><path fill="#666666" d="m338.97446 117.80052l241.5433 0l0 4.598427l-241.5433 0z" fill-rule="nonzero"></path><path stroke="#000000" stroke-width="1.0" stroke-linejoin="round" stroke-linecap="butt" d="m338.97446 117.80052l241.5433 0l0 4.598427l-241.5433 0z" fill-rule="nonzero"></path><path fill="#f3f3f3" d="m358.07248 69.07612l203.37009 0l0 36.850388l-203.37009 0z" fill-rule="nonzero"></path><path stroke="#000000" stroke-width="1.0" stroke-linejoin="round" stroke-linecap="butt" d="m358.07248 69.07612l203.37009 0l0 36.850388l-203.37009 0z" fill-rule="nonzero"></path><path fill="#000000" d="m425.889 92.581314l0 -5.28125q0 -0.34375 -0.03125 -0.5625q-0.03125 -0.21875 -0.09375 -0.34375q-0.046875 -0.140625 -0.125 -0.1875q-0.078125 -0.046875 -0.203125 -0.046875q-0.15625 0 -0.28125 0.09375q-0.125 0.078125 -0.265625 0.28125q-0.140625 0.1875 -0.3125 0.515625q-0.171875 0.328125 -0.40625 0.8125l0 4.71875l-1.171875 0l0 -5.140625q0 -0.40625 -0.03125 -0.65625q-0.015625 -0.25 -0.078125 -0.390625q-0.046875 -0.140625 -0.140625 -0.1875q-0.078125 -0.046875 -0.203125 -0.046875q-0.140625 0 -0.265625 0.078125q-0.109375 0.0625 -0.25 0.265625q-0.140625 0.1875 -0.3125 0.515625q-0.171875 0.328125 -0.421875 0.84375l0 4.71875l-1.171875 0l0 -7.359375l0.984375 0l0.046875 1.40625q0.1875 -0.421875 0.359375 -0.703125q0.1875 -0.296875 0.375 -0.46875q0.203125 -0.1875 0.40625 -0.265625q0.21875 -0.09375 0.484375 -0.09375q0.59375 0 0.90625 0.390625q0.3125 0.390625 0.3125 1.203125q0.171875 -0.390625 0.34375 -0.6875q0.171875 -0.296875 0.359375 -0.484375q0.1875 -0.203125 0.421875 -0.3125q0.234375 -0.109375 0.546875 -0.109375q1.390625 0 1.390625 2.125l0 5.359375l-1.171875 0zm7.526825 0l-0.03125 -0.984375q-0.59375 0.59375 -1.21875 0.859375q-0.609375 0.25 -1.296875 0.25q-0.625 0 -1.078125 -0.15625q-0.4375 -0.15625 -0.734375 -0.4375q-0.28125 -0.28125 -0.421875 -0.65625q-0.140625 -0.390625 -0.140625 -0.84375q0 -1.09375 0.828125 -1.71875q0.828125 -0.640625 2.4375 -0.640625l1.515625 0l0 -0.640625q0 -0.65625 -0.421875 -1.046875q-0.40625 -0.390625 -1.265625 -0.390625q-0.625 0 -1.234375 0.140625q-0.59375 0.140625 -1.234375 0.40625l0 -1.15625q0.234375 -0.09375 0.53125 -0.171875q0.296875 -0.078125 0.625 -0.140625q0.328125 -0.078125 0.6875 -0.109375q0.359375 -0.046875 0.734375 -0.046875q0.65625 0 1.1875 0.15625q0.546875 0.140625 0.90625 0.4375q0.375 0.296875 0.5625 0.75q0.203125 0.453125 0.203125 1.078125l0 5.0625l-1.140625 0zm-0.140625 -3.34375l-1.609375 0q-0.484375 0 -0.828125 0.09375q-0.34375 0.09375 -0.5625 0.265625q-0.21875 0.171875 -0.328125 0.421875q-0.09375 0.25 -0.09375 0.5625q0 0.203125 0.0625 0.40625q0.0625 0.1875 0.203125 0.34375q0.15625 0.140625 0.390625 0.234375q0.234375 0.078125 0.5625 0.078125q0.4375 0 1.0 -0.265625q0.578125 -0.265625 1.203125 -0.84375l0 -1.296875zm5.97995 -2.953125l-2.171875 0l0 -1.0625l3.46875 0l0 6.296875l2.1875 0l0 1.0625l-5.890625 0l0 -1.0625l2.40625 0l0 -5.234375zm0.453125 -4.140625q0.21875 0 0.390625 0.078125q0.1875 0.078125 0.3125 0.21875q0.140625 0.140625 0.21875 0.328125q0.078125 0.171875 0.078125 0.375q0 0.203125 -0.078125 0.390625q-0.078125 0.1875 -0.21875 0.328125q-0.125 0.140625 -0.3125 0.21875q-0.171875 0.0625 -0.390625 0.0625q-0.21875 0 -0.40625 -0.0625q-0.171875 -0.078125 -0.3125 -0.21875q-0.125 -0.140625 -0.203125 -0.328125q-0.078125 -0.1875 -0.078125 -0.390625q0 -0.203125 0.078125 -0.375q0.078125 -0.1875 0.203125 -0.328125q0.140625 -0.140625 0.3125 -0.21875q0.1875 -0.078125 0.40625 -0.078125zm5.10495 3.078125l1.140625 0l0.046875 1.1875q0.328125 -0.375 0.625 -0.625q0.296875 -0.25 0.578125 -0.40625q0.296875 -0.15625 0.59375 -0.21875q0.296875 -0.0625 0.625 -0.0625q1.140625 0 1.71875 0.671875q0.578125 0.671875 0.578125 2.015625l0 4.796875l-1.265625 0l0 -4.6875q0 -0.875 -0.328125 -1.28125q-0.328125 -0.421875 -0.953125 -0.421875q-0.234375 0 -0.46875 0.078125q-0.21875 0.0625 -0.46875 0.234375q-0.234375 0.171875 -0.515625 0.46875q-0.28125 0.296875 -0.625 0.734375l0 4.875l-1.28125 0l0 -7.359375zm12.464325 10.4375q-3.375 -3.125 -3.375 -6.921875q0 -0.875 0.171875 -1.75q0.1875 -0.890625 0.578125 -1.78125q0.40625 -0.890625 1.0625 -1.765625q0.65625 -0.890625 1.59375 -1.765625l0.734375 0.75q-2.84375 2.8125 -2.84375 6.21875q0 1.703125 0.71875 3.28125q0.71875 1.5625 2.125 2.953125l-0.765625 0.78125zm9.683075 -5.984375q0 0.625 -0.265625 1.1875q-0.25 0.546875 -0.765625 0.96875q-0.515625 0.40625 -1.296875 0.640625q-0.765625 0.234375 -1.796875 0.234375q-0.578125 0 -1.03125 -0.03125q-0.453125 -0.03125 -0.84375 -0.09375l0 -1.140625q0.453125 0.078125 0.953125 0.125q0.515625 0.046875 1.03125 0.046875q0.71875 0 1.21875 -0.125q0.515625 -0.140625 0.84375 -0.375q0.328125 -0.25 0.46875 -0.59375q0.140625 -0.34375 0.140625 -0.765625q0 -0.40625 -0.171875 -0.6875q-0.171875 -0.296875 -0.5 -0.5q-0.3125 -0.203125 -0.765625 -0.296875q-0.4375 -0.09375 -0.953125 -0.09375l-1.09375 0l0 -1.046875l1.109375 0q0.421875 0 0.78125 -0.109375q0.359375 -0.125 0.609375 -0.328125q0.25 -0.21875 0.375 -0.53125q0.140625 -0.3125 0.140625 -0.703125q0 -0.765625 -0.46875 -1.109375q-0.46875 -0.359375 -1.375 -0.359375q-0.484375 0 -1.0 0.09375q-0.5 0.09375 -1.09375 0.28125l0 -1.109375q0.25 -0.09375 0.53125 -0.15625q0.28125 -0.078125 0.5625 -0.125q0.28125 -0.046875 0.5625 -0.0625q0.28125 -0.03125 0.53125 -0.03125q0.765625 0 1.34375 0.171875q0.578125 0.15625 0.96875 0.46875q0.390625 0.296875 0.578125 0.75q0.203125 0.4375 0.203125 0.984375q0 0.8125 -0.421875 1.375q-0.421875 0.5625 -1.15625 0.890625q0.375 0.046875 0.734375 0.234375q0.375 0.171875 0.65625 0.453125q0.296875 0.265625 0.46875 0.640625q0.1875 0.375 0.1875 0.828125zm2.60495 4.40625q0.359375 0.015625 0.703125 -0.0625q0.359375 -0.078125 0.625 -0.234375q0.28125 -0.15625 0.4375 -0.390625q0.15625 -0.234375 0.15625 -0.546875q0 -0.296875 -0.109375 -0.484375q-0.09375 -0.203125 -0.234375 -0.359375q-0.125 -0.15625 -0.234375 -0.34375q-0.109375 -0.1875 -0.109375 -0.484375q0 -0.15625 0.0625 -0.328125q0.0625 -0.171875 0.171875 -0.3125q0.125 -0.140625 0.3125 -0.21875q0.1875 -0.09375 0.453125 -0.09375q0.25 0 0.484375 0.109375q0.234375 0.109375 0.40625 0.328125q0.1875 0.21875 0.296875 0.546875q0.109375 0.328125 0.109375 0.78125q0 0.59375 -0.234375 1.15625q-0.21875 0.5625 -0.65625 1.0q-0.4375 0.4375 -1.109375 0.6875q-0.65625 0.25 -1.53125 0.25l0 -1.0zm13.6987 -1.5l-6.3125 0l0 -1.140625l2.46875 -2.46875q0.609375 -0.59375 0.984375 -1.03125q0.390625 -0.4375 0.59375 -0.796875q0.21875 -0.375 0.296875 -0.6875q0.078125 -0.328125 0.078125 -0.703125q0 -0.34375 -0.109375 -0.65625q-0.09375 -0.328125 -0.296875 -0.5625q-0.1875 -0.25 -0.5 -0.390625q-0.3125 -0.140625 -0.75 -0.140625q-0.609375 0 -1.109375 0.28125q-0.5 0.265625 -0.921875 0.6875l-0.703125 -0.828125q0.546875 -0.578125 1.25 -0.921875q0.703125 -0.34375 1.640625 -0.34375q0.640625 0 1.15625 0.1875q0.53125 0.1875 0.90625 0.546875q0.390625 0.359375 0.59375 0.890625q0.21875 0.515625 0.21875 1.15625q0 0.5625 -0.15625 1.03125q-0.140625 0.46875 -0.4375 0.9375q-0.296875 0.453125 -0.75 0.953125q-0.453125 0.5 -1.0625 1.09375l-1.734375 1.6875l4.65625 0l0 1.21875zm3.339325 -10.90625q3.375 3.125 3.375 6.953125q0 0.796875 -0.15625 1.65625q-0.15625 0.84375 -0.546875 1.734375q-0.390625 0.890625 -1.046875 1.796875q-0.65625 0.921875 -1.65625 1.84375l-0.734375 -0.75q1.421875 -1.421875 2.125 -2.953125q0.703125 -1.546875 0.703125 -3.234375q0 -3.484375 -2.828125 -6.265625l0.765625 -0.78125zm7.214325 12.40625q0.375 0.015625 0.71875 -0.0625q0.359375 -0.078125 0.625 -0.234375q0.265625 -0.15625 0.421875 -0.390625q0.171875 -0.234375 0.171875 -0.546875q0 -0.296875 -0.109375 -0.484375q-0.109375 -0.203125 -0.25 -0.359375q-0.125 -0.15625 -0.234375 -0.34375q-0.09375 -0.1875 -0.09375 -0.484375q0 -0.15625 0.046875 -0.328125q0.0625 -0.171875 0.1875 -0.3125q0.125 -0.140625 0.3125 -0.21875q0.1875 -0.09375 0.4375 -0.09375q0.265625 0 0.5 0.109375q0.234375 0.109375 0.40625 0.328125q0.1875 0.21875 0.296875 0.546875q0.109375 0.328125 0.109375 0.78125q0 0.59375 -0.234375 1.15625q-0.21875 0.5625 -0.671875 1.0q-0.4375 0.4375 -1.109375 0.6875q-0.65625 0.25 -1.53125 0.25l0 -1.0zm2.296875 -8.984375q0.21875 0 0.421875 0.09375q0.21875 0.09375 0.359375 0.25q0.15625 0.140625 0.25 0.359375q0.09375 0.203125 0.09375 0.421875q0 0.234375 -0.09375 0.4375q-0.09375 0.203125 -0.25 0.359375q-0.140625 0.15625 -0.359375 0.25q-0.203125 0.078125 -0.421875 0.078125q-0.234375 0 -0.4375 -0.078125q-0.203125 -0.09375 -0.359375 -0.25q-0.15625 -0.15625 -0.25 -0.359375q-0.078125 -0.203125 -0.078125 -0.4375q0 -0.21875 0.078125 -0.421875q0.09375 -0.21875 0.25 -0.359375q0.15625 -0.15625 0.359375 -0.25q0.203125 -0.09375 0.4375 -0.09375z" fill-rule="nonzero"></path><path fill="#f3f3f3" d="m358.06256 20.351706l203.37006 0l0 36.850395l-203.37006 0z" fill-rule="nonzero"></path><path stroke="#000000" stroke-width="1.0" stroke-linejoin="round" stroke-linecap="butt" d="m358.06256 20.351706l203.37006 0l0 36.850395l-203.37006 0z" fill-rule="nonzero"></path><path fill="#000000" d="m429.3769 43.856903l-0.03125 -0.984375q-0.59375 0.59375 -1.21875 0.859375q-0.609375 0.25 -1.296875 0.25q-0.625 0 -1.078125 -0.15625q-0.4375 -0.15625 -0.734375 -0.4375q-0.28125 -0.28125 -0.421875 -0.65625q-0.140625 -0.390625 -0.140625 -0.84375q0 -1.09375 0.828125 -1.71875q0.828125 -0.640625 2.4375 -0.640625l1.515625 0l0 -0.640625q0 -0.65625 -0.421875 -1.046875q-0.40625 -0.390625 -1.265625 -0.390625q-0.625 0 -1.234375 0.140625q-0.59375 0.140625 -1.234375 0.40625l0 -1.15625q0.234375 -0.09375 0.53125 -0.171875q0.296875 -0.078125 0.625 -0.140625q0.328125 -0.078125 0.6875 -0.109375q0.359375 -0.046875 0.734375 -0.046875q0.65625 0 1.1875 0.15625q0.546875 0.140625 0.90625 0.4375q0.375 0.296875 0.5625 0.75q0.203125 0.453125 0.203125 1.078125l0 5.0625l-1.140625 0zm-0.140625 -3.34375l-1.609375 0q-0.484375 0 -0.828125 0.09375q-0.34375 0.09375 -0.5625 0.265625q-0.21875 0.171875 -0.328125 0.421875q-0.09375 0.25 -0.09375 0.5625q0 0.203125 0.0625 0.40625q0.0625 0.1875 0.203125 0.34375q0.15625 0.140625 0.390625 0.234375q0.234375 0.078125 0.5625 0.078125q0.4375 0 1.0 -0.265625q0.578125 -0.265625 1.203125 -0.84375l0 -1.296875zm3.10495 -0.171875q0 -0.9375 0.25 -1.671875q0.265625 -0.734375 0.734375 -1.234375q0.46875 -0.5 1.125 -0.75q0.671875 -0.265625 1.484375 -0.265625q0.359375 0 0.6875 0.046875q0.34375 0.03125 0.671875 0.125l0 -3.078125l1.28125 0l0 10.34375l-1.140625 0l-0.03125 -1.390625q-0.546875 0.78125 -1.171875 1.15625q-0.609375 0.359375 -1.34375 0.359375q-0.625 0 -1.109375 -0.25q-0.46875 -0.265625 -0.796875 -0.75q-0.3125 -0.484375 -0.484375 -1.15625q-0.15625 -0.671875 -0.15625 -1.484375zm1.3125 -0.09375q0 1.34375 0.390625 2.0q0.390625 0.65625 1.109375 0.65625q0.484375 0 1.015625 -0.4375q0.53125 -0.4375 1.125 -1.28125l0 -3.421875q-0.3125 -0.140625 -0.6875 -0.21875q-0.375 -0.078125 -0.75 -0.078125q-1.046875 0 -1.625 0.671875q-0.578125 0.671875 -0.578125 2.109375zm6.745575 0.09375q0 -0.9375 0.25 -1.671875q0.265625 -0.734375 0.734375 -1.234375q0.46875 -0.5 1.125 -0.75q0.671875 -0.265625 1.484375 -0.265625q0.359375 0 0.6875 0.046875q0.34375 0.03125 0.671875 0.125l0 -3.078125l1.28125 0l0 10.34375l-1.140625 0l-0.03125 -1.390625q-0.546875 0.78125 -1.171875 1.15625q-0.609375 0.359375 -1.34375 0.359375q-0.625 0 -1.109375 -0.25q-0.46875 -0.265625 -0.796875 -0.75q-0.3125 -0.484375 -0.484375 -1.15625q-0.15625 -0.671875 -0.15625 -1.484375zm1.3125 -0.09375q0 1.34375 0.390625 2.0q0.390625 0.65625 1.109375 0.65625q0.484375 0 1.015625 -0.4375q0.53125 -0.4375 1.125 -1.28125l0 -3.421875q-0.3125 -0.140625 -0.6875 -0.21875q-0.375 -0.078125 -0.75 -0.078125q-1.046875 0 -1.625 0.671875q-0.578125 0.671875 -0.578125 2.109375zm11.526825 6.6875q-3.375 -3.125 -3.375 -6.921875q0 -0.875 0.171875 -1.75q0.1875 -0.890625 0.578125 -1.78125q0.40625 -0.890625 1.0625 -1.765625q0.65625 -0.890625 1.59375 -1.765625l0.734375 0.75q-2.84375 2.8125 -2.84375 6.21875q0 1.703125 0.71875 3.28125q0.71875 1.5625 2.125 2.953125l-0.765625 0.78125zm9.683075 -5.984375q0 0.625 -0.265625 1.1875q-0.25 0.546875 -0.765625 0.96875q-0.515625 0.40625 -1.296875 0.640625q-0.765625 0.234375 -1.796875 0.234375q-0.578125 0 -1.03125 -0.03125q-0.453125 -0.03125 -0.84375 -0.09375l0 -1.140625q0.453125 0.078125 0.953125 0.125q0.515625 0.046875 1.03125 0.046875q0.71875 0 1.21875 -0.125q0.515625 -0.140625 0.84375 -0.375q0.328125 -0.25 0.46875 -0.59375q0.140625 -0.34375 0.140625 -0.765625q0 -0.40625 -0.171875 -0.6875q-0.171875 -0.296875 -0.5 -0.5q-0.3125 -0.203125 -0.765625 -0.296875q-0.4375 -0.09375 -0.953125 -0.09375l-1.09375 0l0 -1.046875l1.109375 0q0.421875 0 0.78125 -0.109375q0.359375 -0.125 0.609375 -0.328125q0.25 -0.21875 0.375 -0.53125q0.140625 -0.3125 0.140625 -0.703125q0 -0.765625 -0.46875 -1.109375q-0.46875 -0.359375 -1.375 -0.359375q-0.484375 0 -1.0 0.09375q-0.5 0.09375 -1.09375 0.28125l0 -1.109375q0.25 -0.09375 0.53125 -0.15625q0.28125 -0.078125 0.5625 -0.125q0.28125 -0.046875 0.5625 -0.0625q0.28125 -0.03125 0.53125 -0.03125q0.765625 0 1.34375 0.171875q0.578125 0.15625 0.96875 0.46875q0.390625 0.296875 0.578125 0.75q0.203125 0.4375 0.203125 0.984375q0 0.8125 -0.421875 1.375q-0.421875 0.5625 -1.15625 0.890625q0.375 0.046875 0.734375 0.234375q0.375 0.171875 0.65625 0.453125q0.296875 0.265625 0.46875 0.640625q0.1875 0.375 0.1875 0.828125zm2.60495 4.40625q0.359375 0.015625 0.703125 -0.0625q0.359375 -0.078125 0.625 -0.234375q0.28125 -0.15625 0.4375 -0.390625q0.15625 -0.234375 0.15625 -0.546875q0 -0.296875 -0.109375 -0.484375q-0.09375 -0.203125 -0.234375 -0.359375q-0.125 -0.15625 -0.234375 -0.34375q-0.109375 -0.1875 -0.109375 -0.484375q0 -0.15625 0.0625 -0.328125q0.0625 -0.171875 0.171875 -0.3125q0.125 -0.140625 0.3125 -0.21875q0.1875 -0.09375 0.453125 -0.09375q0.25 0 0.484375 0.109375q0.234375 0.109375 0.40625 0.328125q0.1875 0.21875 0.296875 0.546875q0.109375 0.328125 0.109375 0.78125q0 0.59375 -0.234375 1.15625q-0.21875 0.5625 -0.65625 1.0q-0.4375 0.4375 -1.109375 0.6875q-0.65625 0.25 -1.53125 0.25l0 -1.0zm13.6987 -1.5l-6.3125 0l0 -1.140625l2.46875 -2.46875q0.609375 -0.59375 0.984375 -1.03125q0.390625 -0.4375 0.59375 -0.796875q0.21875 -0.375 0.296875 -0.6875q0.078125 -0.328125 0.078125 -0.703125q0 -0.34375 -0.109375 -0.65625q-0.09375 -0.328125 -0.296875 -0.5625q-0.1875 -0.25 -0.5 -0.390625q-0.3125 -0.140625 -0.75 -0.140625q-0.609375 0 -1.109375 0.28125q-0.5 0.265625 -0.921875 0.6875l-0.703125 -0.828125q0.546875 -0.578125 1.25 -0.921875q0.703125 -0.34375 1.640625 -0.34375q0.640625 0 1.15625 0.1875q0.53125 0.1875 0.90625 0.546875q0.390625 0.359375 0.59375 0.890625q0.21875 0.515625 0.21875 1.15625q0 0.5625 -0.15625 1.03125q-0.140625 0.46875 -0.4375 0.9375q-0.296875 0.453125 -0.75 0.953125q-0.453125 0.5 -1.0625 1.09375l-1.734375 1.6875l4.65625 0l0 1.21875zm3.339325 -10.90625q3.375 3.125 3.375 6.953125q0 0.796875 -0.15625 1.65625q-0.15625 0.84375 -0.546875 1.734375q-0.390625 0.890625 -1.046875 1.796875q-0.65625 0.921875 -1.65625 1.84375l-0.734375 -0.75q1.421875 -1.421875 2.125 -2.953125q0.703125 -1.546875 0.703125 -3.234375q0 -3.484375 -2.828125 -6.265625l0.765625 -0.78125zm7.214325 12.40625q0.375 0.015625 0.71875 -0.0625q0.359375 -0.078125 0.625 -0.234375q0.265625 -0.15625 0.421875 -0.390625q0.171875 -0.234375 0.171875 -0.546875q0 -0.296875 -0.109375 -0.484375q-0.109375 -0.203125 -0.25 -0.359375q-0.125 -0.15625 -0.234375 -0.34375q-0.09375 -0.1875 -0.09375 -0.484375q0 -0.15625 0.046875 -0.328125q0.0625 -0.171875 0.1875 -0.3125q0.125 -0.140625 0.3125 -0.21875q0.1875 -0.09375 0.4375 -0.09375q0.265625 0 0.5 0.109375q0.234375 0.109375 0.40625 0.328125q0.1875 0.21875 0.296875 0.546875q0.109375 0.328125 0.109375 0.78125q0 0.59375 -0.234375 1.15625q-0.21875 0.5625 -0.671875 1.0q-0.4375 0.4375 -1.109375 0.6875q-0.65625 0.25 -1.53125 0.25l0 -1.0zm2.296875 -8.984375q0.21875 0 0.421875 0.09375q0.21875 0.09375 0.359375 0.25q0.15625 0.140625 0.25 0.359375q0.09375 0.203125 0.09375 0.421875q0 0.234375 -0.09375 0.4375q-0.09375 0.203125 -0.25 0.359375q-0.140625 0.15625 -0.359375 0.25q-0.203125 0.078125 -0.421875 0.078125q-0.234375 0 -0.4375 -0.078125q-0.203125 -0.09375 -0.359375 -0.25q-0.15625 -0.15625 -0.25 -0.359375q-0.078125 -0.203125 -0.078125 -0.4375q0 -0.21875 0.078125 -0.421875q0.09375 -0.21875 0.25 -0.359375q0.15625 -0.15625 0.359375 -0.25q0.203125 -0.09375 0.4375 -0.09375z" fill-rule="nonzero"></path><path fill="#666666" d="m651.40826 117.8003l241.54327 0l0 4.598427l-241.54327 0z" fill-rule="nonzero"></path><path stroke="#000000" stroke-width="1.0" stroke-linejoin="round" stroke-linecap="butt" d="m651.40826 117.8003l241.54327 0l0 4.598427l-241.54327 0z" fill-rule="nonzero"></path><path fill="#f3f3f3" d="m670.5063 69.07589l203.37006 0l0 36.850395l-203.37006 0z" fill-rule="nonzero"></path><path stroke="#000000" stroke-width="1.0" stroke-linejoin="round" stroke-linecap="butt" d="m670.5063 69.07589l203.37006 0l0 36.850395l-203.37006 0z" fill-rule="nonzero"></path><path fill="#000000" d="m738.3228 92.581085l0 -5.28125q0 -0.34375 -0.03125 -0.5625q-0.03125 -0.21875 -0.09375 -0.34375q-0.046875 -0.140625 -0.125 -0.1875q-0.078125 -0.046875 -0.203125 -0.046875q-0.15625 0 -0.28125 0.09375q-0.125 0.078125 -0.265625 0.28125q-0.140625 0.1875 -0.3125 0.515625q-0.171875 0.328125 -0.40625 0.8125l0 4.71875l-1.171875 0l0 -5.140625q0 -0.40625 -0.03125 -0.65625q-0.015625 -0.25 -0.078125 -0.390625q-0.046875 -0.140625 -0.140625 -0.1875q-0.078125 -0.046875 -0.203125 -0.046875q-0.140625 0 -0.265625 0.078125q-0.109375 0.0625 -0.25 0.265625q-0.140625 0.1875 -0.3125 0.515625q-0.171875 0.328125 -0.421875 0.84375l0 4.71875l-1.171875 0l0 -7.359375l0.984375 0l0.046875 1.40625q0.1875 -0.421875 0.359375 -0.703125q0.1875 -0.296875 0.375 -0.46875q0.203125 -0.1875 0.40625 -0.265625q0.21875 -0.09375 0.484375 -0.09375q0.59375 0 0.90625 0.390625q0.3125 0.390625 0.3125 1.203125q0.171875 -0.390625 0.34375 -0.6875q0.171875 -0.296875 0.359375 -0.484375q0.1875 -0.203125 0.421875 -0.3125q0.234375 -0.109375 0.546875 -0.109375q1.390625 0 1.390625 2.125l0 5.359375l-1.171875 0zm7.5267944 0l-0.03125 -0.984375q-0.59375 0.59375 -1.21875 0.859375q-0.609375 0.25 -1.296875 0.25q-0.625 0 -1.078125 -0.15625q-0.4375 -0.15625 -0.734375 -0.4375q-0.28125 -0.28125 -0.421875 -0.65625q-0.140625 -0.390625 -0.140625 -0.84375q0 -1.09375 0.828125 -1.71875q0.828125 -0.640625 2.4375 -0.640625l1.515625 0l0 -0.640625q0 -0.65625 -0.421875 -1.046875q-0.40625 -0.390625 -1.265625 -0.390625q-0.625 0 -1.234375 0.140625q-0.59375 0.140625 -1.234375 0.40625l0 -1.15625q0.234375 -0.09375 0.53125 -0.171875q0.296875 -0.078125 0.625 -0.140625q0.328125 -0.078125 0.6875 -0.109375q0.359375 -0.046875 0.734375 -0.046875q0.65625 0 1.1875 0.15625q0.546875 0.140625 0.90625 0.4375q0.375 0.296875 0.5625 0.75q0.203125 0.453125 0.203125 1.078125l0 5.0625l-1.140625 0zm-0.140625 -3.34375l-1.609375 0q-0.484375 0 -0.828125 0.09375q-0.34375 0.09375 -0.5625 0.265625q-0.21875 0.171875 -0.328125 0.421875q-0.09375 0.25 -0.09375 0.5625q0 0.203125 0.0625 0.40625q0.0625 0.1875 0.203125 0.34375q0.15625 0.140625 0.390625 0.234375q0.234375 0.078125 0.5625 0.078125q0.4375 0 1.0 -0.265625q0.578125 -0.265625 1.203125 -0.84375l0 -1.296875zm5.9799805 -2.953125l-2.171875 0l0 -1.0625l3.46875 0l0 6.296875l2.1875 0l0 1.0625l-5.890625 0l0 -1.0625l2.40625 0l0 -5.234375zm0.453125 -4.140625q0.21875 0 0.390625 0.078125q0.1875 0.078125 0.3125 0.21875q0.140625 0.140625 0.21875 0.328125q0.078125 0.171875 0.078125 0.375q0 0.203125 -0.078125 0.390625q-0.078125 0.1875 -0.21875 0.328125q-0.125 0.140625 -0.3125 0.21875q-0.171875 0.0625 -0.390625 0.0625q-0.21875 0 -0.40625 -0.0625q-0.171875 -0.078125 -0.3125 -0.21875q-0.125 -0.140625 -0.203125 -0.328125q-0.078125 -0.1875 -0.078125 -0.390625q0 -0.203125 0.078125 -0.375q0.078125 -0.1875 0.203125 -0.328125q0.140625 -0.140625 0.3125 -0.21875q0.1875 -0.078125 0.40625 -0.078125zm5.1049194 3.078125l1.140625 0l0.046875 1.1875q0.328125 -0.375 0.625 -0.625q0.296875 -0.25 0.578125 -0.40625q0.296875 -0.15625 0.59375 -0.21875q0.296875 -0.0625 0.625 -0.0625q1.140625 0 1.71875 0.671875q0.578125 0.671875 0.578125 2.015625l0 4.796875l-1.265625 0l0 -4.6875q0 -0.875 -0.328125 -1.28125q-0.328125 -0.421875 -0.953125 -0.421875q-0.234375 0 -0.46875 0.078125q-0.21875 0.0625 -0.46875 0.234375q-0.234375 0.171875 -0.515625 0.46875q-0.28125 0.296875 -0.625 0.734375l0 4.875l-1.28125 0l0 -7.359375zm12.464355 10.4375q-3.375 -3.125 -3.375 -6.921875q0 -0.875 0.171875 -1.75q0.1875 -0.890625 0.578125 -1.78125q0.40625 -0.890625 1.0625 -1.765625q0.65625 -0.890625 1.59375 -1.765625l0.734375 0.75q-2.84375 2.8125 -2.84375 6.21875q0 1.703125 0.71875 3.28125q0.71875 1.5625 2.125 2.953125l-0.765625 0.78125zm9.683044 -5.984375q0 0.625 -0.265625 1.1875q-0.25 0.546875 -0.765625 0.96875q-0.515625 0.40625 -1.296875 0.640625q-0.765625 0.234375 -1.796875 0.234375q-0.578125 0 -1.03125 -0.03125q-0.453125 -0.03125 -0.84375 -0.09375l0 -1.140625q0.453125 0.078125 0.953125 0.125q0.515625 0.046875 1.03125 0.046875q0.71875 0 1.21875 -0.125q0.515625 -0.140625 0.84375 -0.375q0.328125 -0.25 0.46875 -0.59375q0.140625 -0.34375 0.140625 -0.765625q0 -0.40625 -0.171875 -0.6875q-0.171875 -0.296875 -0.5 -0.5q-0.3125 -0.203125 -0.765625 -0.296875q-0.4375 -0.09375 -0.953125 -0.09375l-1.09375 0l0 -1.046875l1.109375 0q0.421875 0 0.78125 -0.109375q0.359375 -0.125 0.609375 -0.328125q0.25 -0.21875 0.375 -0.53125q0.140625 -0.3125 0.140625 -0.703125q0 -0.765625 -0.46875 -1.109375q-0.46875 -0.359375 -1.375 -0.359375q-0.484375 0 -1.0 0.09375q-0.5 0.09375 -1.09375 0.28125l0 -1.109375q0.25 -0.09375 0.53125 -0.15625q0.28125 -0.078125 0.5625 -0.125q0.28125 -0.046875 0.5625 -0.0625q0.28125 -0.03125 0.53125 -0.03125q0.765625 0 1.34375 0.171875q0.578125 0.15625 0.96875 0.46875q0.390625 0.296875 0.578125 0.75q0.203125 0.4375 0.203125 0.984375q0 0.8125 -0.421875 1.375q-0.421875 0.5625 -1.15625 0.890625q0.375 0.046875 0.734375 0.234375q0.375 0.171875 0.65625 0.453125q0.296875 0.265625 0.46875 0.640625q0.1875 0.375 0.1875 0.828125zm2.6049805 4.40625q0.359375 0.015625 0.703125 -0.0625q0.359375 -0.078125 0.625 -0.234375q0.28125 -0.15625 0.4375 -0.390625q0.15625 -0.234375 0.15625 -0.546875q0 -0.296875 -0.109375 -0.484375q-0.09375 -0.203125 -0.234375 -0.359375q-0.125 -0.15625 -0.234375 -0.34375q-0.109375 -0.1875 -0.109375 -0.484375q0 -0.15625 0.0625 -0.328125q0.0625 -0.171875 0.171875 -0.3125q0.125 -0.140625 0.3125 -0.21875q0.1875 -0.09375 0.453125 -0.09375q0.25 0 0.484375 0.109375q0.234375 0.109375 0.40625 0.328125q0.1875 0.21875 0.296875 0.546875q0.109375 0.328125 0.109375 0.78125q0 0.59375 -0.234375 1.15625q-0.21875 0.5625 -0.65625 1.0q-0.4375 0.4375 -1.109375 0.6875q-0.65625 0.25 -1.53125 0.25l0 -1.0zm13.698669 -1.5l-6.3125 0l0 -1.140625l2.46875 -2.46875q0.609375 -0.59375 0.984375 -1.03125q0.390625 -0.4375 0.59375 -0.796875q0.21875 -0.375 0.296875 -0.6875q0.078125 -0.328125 0.078125 -0.703125q0 -0.34375 -0.109375 -0.65625q-0.09375 -0.328125 -0.296875 -0.5625q-0.1875 -0.25 -0.5 -0.390625q-0.3125 -0.140625 -0.75 -0.140625q-0.609375 0 -1.109375 0.28125q-0.5 0.265625 -0.921875 0.6875l-0.703125 -0.828125q0.546875 -0.578125 1.25 -0.921875q0.703125 -0.34375 1.640625 -0.34375q0.640625 0 1.15625 0.1875q0.53125 0.1875 0.90625 0.546875q0.390625 0.359375 0.59375 0.890625q0.21875 0.515625 0.21875 1.15625q0 0.5625 -0.15625 1.03125q-0.140625 0.46875 -0.4375 0.9375q-0.296875 0.453125 -0.75 0.953125q-0.453125 0.5 -1.0625 1.09375l-1.734375 1.6875l4.65625 0l0 1.21875zm3.3393555 -10.90625q3.375 3.125 3.375 6.953125q0 0.796875 -0.15625 1.65625q-0.15625 0.84375 -0.546875 1.734375q-0.390625 0.890625 -1.046875 1.796875q-0.65625 0.921875 -1.65625 1.84375l-0.734375 -0.75q1.421875 -1.421875 2.125 -2.953125q0.703125 -1.546875 0.703125 -3.234375q0 -3.484375 -2.828125 -6.265625l0.765625 -0.78125zm7.2142944 12.40625q0.375 0.015625 0.71875 -0.0625q0.359375 -0.078125 0.625 -0.234375q0.265625 -0.15625 0.421875 -0.390625q0.171875 -0.234375 0.171875 -0.546875q0 -0.296875 -0.109375 -0.484375q-0.109375 -0.203125 -0.25 -0.359375q-0.125 -0.15625 -0.234375 -0.34375q-0.09375 -0.1875 -0.09375 -0.484375q0 -0.15625 0.046875 -0.328125q0.0625 -0.171875 0.1875 -0.3125q0.125 -0.140625 0.3125 -0.21875q0.1875 -0.09375 0.4375 -0.09375q0.265625 0 0.5 0.109375q0.234375 0.109375 0.40625 0.328125q0.1875 0.21875 0.296875 0.546875q0.109375 0.328125 0.109375 0.78125q0 0.59375 -0.234375 1.15625q-0.21875 0.5625 -0.671875 1.0q-0.4375 0.4375 -1.109375 0.6875q-0.65625 0.25 -1.53125 0.25l0 -1.0zm2.296875 -8.984375q0.21875 0 0.421875 0.09375q0.21875 0.09375 0.359375 0.25q0.15625 0.140625 0.25 0.359375q0.09375 0.203125 0.09375 0.421875q0 0.234375 -0.09375 0.4375q-0.09375 0.203125 -0.25 0.359375q-0.140625 0.15625 -0.359375 0.25q-0.203125 0.078125 -0.421875 0.078125q-0.234375 0 -0.4375 -0.078125q-0.203125 -0.09375 -0.359375 -0.25q-0.15625 -0.15625 -0.25 -0.359375q-0.078125 -0.203125 -0.078125 -0.4375q0 -0.21875 0.078125 -0.421875q0.09375 -0.21875 0.25 -0.359375q0.15625 -0.15625 0.359375 -0.25q0.203125 -0.09375 0.4375 -0.09375z" fill-rule="nonzero"></path><path fill="#666666" d="m18.540682 297.80316l241.5433 0l0 4.598419l-241.5433 0z" fill-rule="nonzero"></path><path stroke="#000000" stroke-width="1.0" stroke-linejoin="round" stroke-linecap="butt" d="m18.540682 297.80316l241.5433 0l0 4.598419l-241.5433 0z" fill-rule="nonzero"></path><path fill="#f3f3f3" d="m37.63868 249.07874l203.37009 0l0 36.850403l-203.37009 0z" fill-rule="nonzero"></path><path stroke="#000000" stroke-width="1.0" stroke-linejoin="round" stroke-linecap="butt" d="m37.63868 249.07874l203.37009 0l0 36.850403l-203.37009 0z" fill-rule="nonzero"></path><path fill="#000000" d="m105.455215 272.58392l0 -5.28125q0 -0.34375 -0.03125 -0.5625q-0.03125 -0.21875 -0.09375 -0.34375q-0.046875 -0.140625 -0.125 -0.1875q-0.078125 -0.046875 -0.203125 -0.046875q-0.15625 0 -0.28125 0.09375q-0.125 0.078125 -0.265625 0.28125q-0.140625 0.1875 -0.3125 0.515625q-0.171875 0.328125 -0.40625 0.8125l0 4.71875l-1.171875 0l0 -5.140625q0 -0.40625 -0.03125 -0.65625q-0.015625 -0.25 -0.078125 -0.390625q-0.046875 -0.140625 -0.140625 -0.1875q-0.078125 -0.046875 -0.203125 -0.046875q-0.140625 0 -0.265625 0.078125q-0.109375 0.0625 -0.25 0.265625q-0.140625 0.1875 -0.3125 0.515625q-0.171875 0.328125 -0.421875 0.84375l0 4.71875l-1.171875 0l0 -7.359375l0.984375 0l0.046875 1.40625q0.1875 -0.421875 0.359375 -0.703125q0.1875 -0.296875 0.375 -0.46875q0.203125 -0.1875 0.40625 -0.265625q0.21875 -0.09375 0.484375 -0.09375q0.59375 0 0.90625 0.390625q0.3125 0.390625 0.3125 1.203125q0.171875 -0.390625 0.34375 -0.6875q0.171875 -0.296875 0.359375 -0.484375q0.1875 -0.203125 0.421875 -0.3125q0.234375 -0.109375 0.546875 -0.109375q1.390625 0 1.390625 2.125l0 5.359375l-1.171875 0zm7.526825 0l-0.03125 -0.984375q-0.59375 0.59375 -1.21875 0.859375q-0.609375 0.25 -1.296875 0.25q-0.625 0 -1.078125 -0.15625q-0.4375 -0.15625 -0.734375 -0.4375q-0.28125 -0.28125 -0.421875 -0.65625q-0.140625 -0.390625 -0.140625 -0.84375q0 -1.09375 0.828125 -1.71875q0.828125 -0.640625 2.4375 -0.640625l1.515625 0l0 -0.640625q0 -0.65625 -0.421875 -1.046875q-0.40625 -0.390625 -1.265625 -0.390625q-0.625 0 -1.234375 0.140625q-0.59375 0.140625 -1.234375 0.40625l0 -1.15625q0.234375 -0.09375 0.53125 -0.171875q0.296875 -0.078125 0.625 -0.140625q0.328125 -0.078125 0.6875 -0.109375q0.359375 -0.046875 0.734375 -0.046875q0.65625 0 1.1875 0.15625q0.546875 0.140625 0.90625 0.4375q0.375 0.296875 0.5625 0.75q0.203125 0.453125 0.203125 1.078125l0 5.0625l-1.140625 0zm-0.140625 -3.34375l-1.609375 0q-0.484375 0 -0.828125 0.09375q-0.34375 0.09375 -0.5625 0.265625q-0.21875 0.171875 -0.328125 0.421875q-0.09375 0.25 -0.09375 0.5625q0 0.203125 0.0625 0.40625q0.0625 0.1875 0.203125 0.34375q0.15625 0.140625 0.390625 0.234375q0.234375 0.078125 0.5625 0.078125q0.4375 0 1.0 -0.265625q0.578125 -0.265625 1.203125 -0.84375l0 -1.296875zm5.97995 -2.953125l-2.171875 0l0 -1.0625l3.46875 0l0 6.296875l2.1875 0l0 1.0625l-5.890625 0l0 -1.0625l2.40625 0l0 -5.234375zm0.453125 -4.140625q0.21875 0 0.390625 0.078125q0.1875 0.078125 0.3125 0.21875q0.140625 0.140625 0.21875 0.328125q0.078125 0.171875 0.078125 0.375q0 0.203125 -0.078125 0.390625q-0.078125 0.1875 -0.21875 0.328125q-0.125 0.140625 -0.3125 0.21875q-0.171875 0.0625 -0.390625 0.0625q-0.21875 0 -0.40625 -0.0625q-0.171875 -0.078125 -0.3125 -0.21875q-0.125 -0.140625 -0.203125 -0.328125q-0.078125 -0.1875 -0.078125 -0.390625q0 -0.203125 0.078125 -0.375q0.078125 -0.1875 0.203125 -0.328125q0.140625 -0.140625 0.3125 -0.21875q0.1875 -0.078125 0.40625 -0.078125zm5.10495 3.078125l1.140625 0l0.046875 1.1875q0.328125 -0.375 0.625 -0.625q0.296875 -0.25 0.578125 -0.40625q0.296875 -0.15625 0.59375 -0.21875q0.296875 -0.0625 0.625 -0.0625q1.140625 0 1.71875 0.671875q0.578125 0.671875 0.578125 2.015625l0 4.796875l-1.265625 0l0 -4.6875q0 -0.875 -0.328125 -1.28125q-0.328125 -0.421875 -0.953125 -0.421875q-0.234375 0 -0.46875 0.078125q-0.21875 0.0625 -0.46875 0.234375q-0.234375 0.171875 -0.515625 0.46875q-0.28125 0.296875 -0.625 0.734375l0 4.875l-1.28125 0l0 -7.359375zm12.464325 10.4375q-3.375 -3.125 -3.375 -6.921875q0 -0.875 0.171875 -1.75q0.1875 -0.890625 0.578125 -1.78125q0.40625 -0.890625 1.0625 -1.765625q0.65625 -0.890625 1.59375 -1.765625l0.734375 0.75q-2.84375 2.8125 -2.84375 6.21875q0 1.703125 0.71875 3.28125q0.71875 1.5625 2.125 2.953125l-0.765625 0.78125zm9.683075 -5.984375q0 0.625 -0.265625 1.1875q-0.25 0.546875 -0.765625 0.96875q-0.515625 0.40625 -1.296875 0.640625q-0.765625 0.234375 -1.796875 0.234375q-0.578125 0 -1.03125 -0.03125q-0.453125 -0.03125 -0.84375 -0.09375l0 -1.140625q0.453125 0.078125 0.953125 0.125q0.515625 0.046875 1.03125 0.046875q0.71875 0 1.21875 -0.125q0.515625 -0.140625 0.84375 -0.375q0.328125 -0.25 0.46875 -0.59375q0.140625 -0.34375 0.140625 -0.765625q0 -0.40625 -0.171875 -0.6875q-0.171875 -0.296875 -0.5 -0.5q-0.3125 -0.203125 -0.765625 -0.296875q-0.4375 -0.09375 -0.953125 -0.09375l-1.09375 0l0 -1.046875l1.109375 0q0.421875 0 0.78125 -0.109375q0.359375 -0.125 0.609375 -0.328125q0.25 -0.21875 0.375 -0.53125q0.140625 -0.3125 0.140625 -0.703125q0 -0.765625 -0.46875 -1.109375q-0.46875 -0.359375 -1.375 -0.359375q-0.484375 0 -1.0 0.09375q-0.5 0.09375 -1.09375 0.28125l0 -1.109375q0.25 -0.09375 0.53125 -0.15625q0.28125 -0.078125 0.5625 -0.125q0.28125 -0.046875 0.5625 -0.0625q0.28125 -0.03125 0.53125 -0.03125q0.765625 0 1.34375 0.171875q0.578125 0.15625 0.96875 0.46875q0.390625 0.296875 0.578125 0.75q0.203125 0.4375 0.203125 0.984375q0 0.8125 -0.421875 1.375q-0.421875 0.5625 -1.15625 0.890625q0.375 0.046875 0.734375 0.234375q0.375 0.171875 0.65625 0.453125q0.296875 0.265625 0.46875 0.640625q0.1875 0.375 0.1875 0.828125zm2.60495 4.40625q0.359375 0.015625 0.703125 -0.0625q0.359375 -0.078125 0.625 -0.234375q0.28125 -0.15625 0.4375 -0.390625q0.15625 -0.234375 0.15625 -0.546875q0 -0.296875 -0.109375 -0.484375q-0.09375 -0.203125 -0.234375 -0.359375q-0.125 -0.15625 -0.234375 -0.34375q-0.109375 -0.1875 -0.109375 -0.484375q0 -0.15625 0.0625 -0.328125q0.0625 -0.171875 0.171875 -0.3125q0.125 -0.140625 0.3125 -0.21875q0.1875 -0.09375 0.453125 -0.09375q0.25 0 0.484375 0.109375q0.234375 0.109375 0.40625 0.328125q0.1875 0.21875 0.296875 0.546875q0.109375 0.328125 0.109375 0.78125q0 0.59375 -0.234375 1.15625q-0.21875 0.5625 -0.65625 1.0q-0.4375 0.4375 -1.109375 0.6875q-0.65625 0.25 -1.53125 0.25l0 -1.0zm13.6987 -1.5l-6.3125 0l0 -1.140625l2.46875 -2.46875q0.609375 -0.59375 0.984375 -1.03125q0.390625 -0.4375 0.59375 -0.796875q0.21875 -0.375 0.296875 -0.6875q0.078125 -0.328125 0.078125 -0.703125q0 -0.34375 -0.109375 -0.65625q-0.09375 -0.328125 -0.296875 -0.5625q-0.1875 -0.25 -0.5 -0.390625q-0.3125 -0.140625 -0.75 -0.140625q-0.609375 0 -1.109375 0.28125q-0.5 0.265625 -0.921875 0.6875l-0.703125 -0.828125q0.546875 -0.578125 1.25 -0.921875q0.703125 -0.34375 1.640625 -0.34375q0.640625 0 1.15625 0.1875q0.53125 0.1875 0.90625 0.546875q0.390625 0.359375 0.59375 0.890625q0.21875 0.515625 0.21875 1.15625q0 0.5625 -0.15625 1.03125q-0.140625 0.46875 -0.4375 0.9375q-0.296875 0.453125 -0.75 0.953125q-0.453125 0.5 -1.0625 1.09375l-1.734375 1.6875l4.65625 0l0 1.21875zm3.3393097 -10.90625q3.375 3.125 3.375 6.953125q0 0.796875 -0.15625 1.65625q-0.15625 0.84375 -0.546875 1.734375q-0.390625 0.890625 -1.046875 1.796875q-0.65625 0.921875 -1.65625 1.84375l-0.73435974 -0.75q1.4218597 -1.421875 2.1249847 -2.953125q0.703125 -1.546875 0.703125 -3.234375q0 -3.484375 -2.8281097 -6.265625l0.76560974 -0.78125zm7.214325 12.40625q0.375 0.015625 0.71875 -0.0625q0.359375 -0.078125 0.625 -0.234375q0.265625 -0.15625 0.421875 -0.390625q0.171875 -0.234375 0.171875 -0.546875q0 -0.296875 -0.109375 -0.484375q-0.109375 -0.203125 -0.25 -0.359375q-0.125 -0.15625 -0.234375 -0.34375q-0.09375 -0.1875 -0.09375 -0.484375q0 -0.15625 0.046875 -0.328125q0.0625 -0.171875 0.1875 -0.3125q0.125 -0.140625 0.3125 -0.21875q0.1875 -0.09375 0.4375 -0.09375q0.265625 0 0.5 0.109375q0.234375 0.109375 0.40625 0.328125q0.1875 0.21875 0.296875 0.546875q0.109375 0.328125 0.109375 0.78125q0 0.59375 -0.234375 1.15625q-0.21875 0.5625 -0.671875 1.0q-0.4375 0.4375 -1.109375 0.6875q-0.65625 0.25 -1.53125 0.25l0 -1.0zm2.296875 -8.984375q0.21875 0 0.421875 0.09375q0.21875 0.09375 0.359375 0.25q0.15625 0.140625 0.25 0.359375q0.09375 0.203125 0.09375 0.421875q0 0.234375 -0.09375 0.4375q-0.09375 0.203125 -0.25 0.359375q-0.140625 0.15625 -0.359375 0.25q-0.203125 0.078125 -0.421875 0.078125q-0.234375 0 -0.4375 -0.078125q-0.203125 -0.09375 -0.359375 -0.25q-0.15625 -0.15625 -0.25 -0.359375q-0.078125 -0.203125 -0.078125 -0.4375q0 -0.21875 0.078125 -0.421875q0.09375 -0.21875 0.25 -0.359375q0.15625 -0.15625 0.359375 -0.25q0.203125 -0.09375 0.4375 -0.09375z" fill-rule="nonzero"></path><path fill="#f3f3f3" d="m37.62877 200.35432l203.37007 0l0 36.850403l-203.37007 0z" fill-rule="nonzero"></path><path stroke="#000000" stroke-width="1.0" stroke-linejoin="round" stroke-linecap="butt" d="m37.62877 200.35432l203.37007 0l0 36.850403l-203.37007 0z" fill-rule="nonzero"></path><path fill="#000000" d="m85.76887 223.5939q-0.5 0.1875 -1.03125 0.28125q-0.515625 0.09375 -1.078125 0.09375q-1.734375 0 -2.6875 -0.9375q-0.9375 -0.953125 -0.9375 -2.78125q0 -0.859375 0.265625 -1.5625q0.28125 -0.71875 0.765625 -1.21875q0.5 -0.515625 1.171875 -0.78125q0.6875 -0.28125 1.5 -0.28125q0.578125 0 1.078125 0.078125q0.5 0.078125 0.953125 0.265625l0 1.21875q-0.484375 -0.25 -0.984375 -0.359375q-0.484375 -0.125 -1.015625 -0.125q-0.484375 0 -0.921875 0.1875q-0.4375 0.1875 -0.765625 0.546875q-0.328125 0.34375 -0.53125 0.859375q-0.1875 0.5 -0.1875 1.140625q0 1.328125 0.640625 2.0q0.65625 0.65625 1.8125 0.65625q0.515625 0 1.0 -0.109375q0.5 -0.125 0.953125 -0.359375l0 1.1875zm8.745575 -3.46875q0 0.859375 -0.25 1.578125q-0.234375 0.703125 -0.6875 1.21875q-0.453125 0.5 -1.109375 0.78125q-0.65625 0.28125 -1.484375 0.28125q-0.78125 0 -1.421875 -0.234375q-0.625 -0.25 -1.0625 -0.71875q-0.421875 -0.484375 -0.65625 -1.1875q-0.234375 -0.703125 -0.234375 -1.625q0 -0.84375 0.234375 -1.546875q0.25 -0.71875 0.703125 -1.21875q0.453125 -0.515625 1.109375 -0.796875q0.65625 -0.28125 1.484375 -0.28125q0.78125 0 1.40625 0.25q0.625 0.234375 1.0625 0.71875q0.4375 0.46875 0.671875 1.171875q0.234375 0.703125 0.234375 1.609375zm-1.3125 0.0625q0 -0.6875 -0.15625 -1.1875q-0.140625 -0.515625 -0.421875 -0.859375q-0.28125 -0.34375 -0.6875 -0.515625q-0.390625 -0.171875 -0.875 -0.171875q-0.578125 0 -0.984375 0.234375q-0.40625 0.21875 -0.671875 0.59375q-0.25 0.375 -0.375 0.875q-0.109375 0.484375 -0.109375 1.03125q0 0.671875 0.140625 1.1875q0.15625 0.515625 0.421875 0.859375q0.28125 0.328125 0.671875 0.515625q0.40625 0.171875 0.90625 0.171875q0.5625 0 0.96875 -0.21875q0.421875 -0.234375 0.671875 -0.609375q0.265625 -0.375 0.375 -0.859375q0.125 -0.5 0.125 -1.046875zm2.964325 -3.6875l1.140625 0l0.046875 1.1875q0.328125 -0.375 0.625 -0.625q0.296875 -0.25 0.578125 -0.40625q0.296875 -0.15625 0.59375 -0.21875q0.296875 -0.0625 0.625 -0.0625q1.140625 0 1.71875 0.671875q0.578125 0.671875 0.578125 2.015625l0 4.796875l-1.265625 0l0 -4.6875q0 -0.875 -0.328125 -1.28125q-0.328125 -0.421875 -0.953125 -0.421875q-0.234375 0 -0.46875 0.078125q-0.21875 0.0625 -0.46875 0.234375q-0.234375 0.171875 -0.515625 0.46875q-0.28125 0.296875 -0.625 0.734375l0 4.875l-1.28125 0l0 -7.359375zm13.8862 5.359375q0 0.375 -0.140625 0.6875q-0.125 0.3125 -0.359375 0.546875q-0.21875 0.234375 -0.53125 0.40625q-0.296875 0.171875 -0.640625 0.28125q-0.328125 0.109375 -0.6875 0.15625q-0.359375 0.046875 -0.703125 0.046875q-0.75 0 -1.375 -0.0625q-0.625 -0.0625 -1.234375 -0.203125l0 -1.171875q0.65625 0.171875 1.28125 0.28125q0.640625 0.09375 1.265625 0.09375q0.921875 0 1.359375 -0.25q0.4375 -0.25 0.4375 -0.71875q0 -0.203125 -0.078125 -0.359375q-0.0625 -0.15625 -0.25 -0.296875q-0.171875 -0.140625 -0.5625 -0.296875q-0.375 -0.15625 -1.046875 -0.34375q-0.5 -0.15625 -0.921875 -0.34375q-0.421875 -0.1875 -0.734375 -0.4375q-0.296875 -0.25 -0.484375 -0.59375q-0.171875 -0.34375 -0.171875 -0.8125q0 -0.3125 0.140625 -0.671875q0.15625 -0.375 0.5 -0.6875q0.34375 -0.3125 0.921875 -0.515625q0.59375 -0.21875 1.46875 -0.21875q0.4375 0 0.953125 0.046875q0.53125 0.046875 1.109375 0.171875l0 1.125q-0.609375 -0.140625 -1.15625 -0.203125q-0.53125 -0.078125 -0.921875 -0.078125q-0.46875 0 -0.796875 0.078125q-0.328125 0.0625 -0.53125 0.203125q-0.203125 0.125 -0.296875 0.296875q-0.078125 0.171875 -0.078125 0.359375q0 0.203125 0.078125 0.375q0.078125 0.15625 0.28125 0.3125q0.203125 0.140625 0.578125 0.296875q0.375 0.140625 0.984375 0.3125q0.640625 0.203125 1.09375 0.40625q0.453125 0.203125 0.71875 0.46875q0.28125 0.25 0.40625 0.578125q0.125 0.3125 0.125 0.734375zm8.6362 -1.734375q0 0.859375 -0.25 1.578125q-0.234375 0.703125 -0.6875 1.21875q-0.453125 0.5 -1.109375 0.78125q-0.65625 0.28125 -1.484375 0.28125q-0.78125 0 -1.421875 -0.234375q-0.625 -0.25 -1.0625 -0.71875q-0.421875 -0.484375 -0.65625 -1.1875q-0.234375 -0.703125 -0.234375 -1.625q0 -0.84375 0.234375 -1.546875q0.25 -0.71875 0.703125 -1.21875q0.453125 -0.515625 1.109375 -0.796875q0.65625 -0.28125 1.484375 -0.28125q0.78125 0 1.40625 0.25q0.625 0.234375 1.0625 0.71875q0.4375 0.46875 0.671875 1.171875q0.234375 0.703125 0.234375 1.609375zm-1.3125 0.0625q0 -0.6875 -0.15625 -1.1875q-0.140625 -0.515625 -0.421875 -0.859375q-0.28125 -0.34375 -0.6875 -0.515625q-0.390625 -0.171875 -0.875 -0.171875q-0.578125 0 -0.984375 0.234375q-0.40625 0.21875 -0.671875 0.59375q-0.25 0.375 -0.375 0.875q-0.109375 0.484375 -0.109375 1.03125q0 0.671875 0.140625 1.1875q0.15625 0.515625 0.421875 0.859375q0.28125 0.328125 0.671875 0.515625q0.40625 0.171875 0.90625 0.171875q0.5625 0 0.96875 -0.21875q0.421875 -0.234375 0.671875 -0.609375q0.265625 -0.375 0.375 -0.859375q0.125 -0.5 0.125 -1.046875zm5.464325 -5.625l-2.171875 0l0 -1.046875l3.46875 0l0 9.28125l2.1875 0l0 1.0625l-5.890625 0l0 -1.0625l2.40625 0l0 -8.234375zm11.776817 5.234375q0 0.265625 -0.015625 0.453125q0 0.1875 -0.015625 0.34375l-5.171875 0q0 1.125 0.625 1.734375q0.640625 0.59375 1.828125 0.59375q0.3125 0 0.640625 -0.015625q0.328125 -0.03125 0.625 -0.0625q0.296875 -0.046875 0.5625 -0.09375q0.28125 -0.0625 0.515625 -0.140625l0 1.046875q-0.515625 0.15625 -1.171875 0.234375q-0.65625 0.09375 -1.359375 0.09375q-0.9375 0 -1.625 -0.25q-0.6875 -0.25 -1.125 -0.734375q-0.421875 -0.5 -0.640625 -1.203125q-0.203125 -0.703125 -0.203125 -1.59375q0 -0.78125 0.21875 -1.46875q0.21875 -0.703125 0.640625 -1.21875q0.4375 -0.53125 1.0625 -0.828125q0.625 -0.3125 1.421875 -0.3125q0.765625 0 1.359375 0.25q0.59375 0.234375 1.0 0.6875q0.40625 0.4375 0.609375 1.078125q0.21875 0.625 0.21875 1.40625zm-1.328125 -0.1875q0.015625 -0.484375 -0.109375 -0.890625q-0.109375 -0.40625 -0.359375 -0.703125q-0.234375 -0.296875 -0.609375 -0.453125q-0.359375 -0.171875 -0.84375 -0.171875q-0.421875 0 -0.765625 0.171875q-0.34375 0.15625 -0.59375 0.453125q-0.25 0.28125 -0.40625 0.703125q-0.140625 0.40625 -0.1875 0.890625l3.875 0zm6.058075 1.9375q0.25 0 0.46875 0.109375q0.234375 0.09375 0.390625 0.265625q0.171875 0.15625 0.265625 0.390625q0.09375 0.21875 0.09375 0.46875q0 0.25 -0.09375 0.46875q-0.09375 0.21875 -0.265625 0.390625q-0.15625 0.15625 -0.390625 0.25q-0.21875 0.09375 -0.46875 0.09375q-0.25 0 -0.46875 -0.09375q-0.21875 -0.09375 -0.390625 -0.25q-0.15625 -0.171875 -0.265625 -0.390625q-0.09375 -0.21875 -0.09375 -0.46875q0 -0.25 0.09375 -0.46875q0.109375 -0.234375 0.265625 -0.390625q0.171875 -0.171875 0.390625 -0.265625q0.21875 -0.109375 0.46875 -0.109375zm7.66745 -6.984375l-2.171875 0l0 -1.046875l3.46875 0l0 9.28125l2.1875 0l0 1.0625l-5.890625 0l0 -1.0625l2.40625 0l0 -8.234375zm11.964325 5.5625q0 0.859375 -0.25 1.578125q-0.234375 0.703125 -0.6875 1.21875q-0.453125 0.5 -1.109375 0.78125q-0.65625 0.28125 -1.484375 0.28125q-0.78125 0 -1.421875 -0.234375q-0.625 -0.25 -1.0625 -0.71875q-0.421875 -0.484375 -0.65625 -1.1875q-0.234375 -0.703125 -0.234375 -1.625q0 -0.84375 0.234375 -1.546875q0.25 -0.71875 0.703125 -1.21875q0.453125 -0.515625 1.109375 -0.796875q0.65625 -0.28125 1.484375 -0.28125q0.78125 0 1.40625 0.25q0.625 0.234375 1.0625 0.71875q0.4375 0.46875 0.671875 1.171875q0.234375 0.703125 0.234375 1.609375zm-1.3125 0.0625q0 -0.6875 -0.15625 -1.1875q-0.140625 -0.515625 -0.421875 -0.859375q-0.28125 -0.34375 -0.6875 -0.515625q-0.390625 -0.171875 -0.875 -0.171875q-0.578125 0 -0.984375 0.234375q-0.40625 0.21875 -0.671875 0.59375q-0.25 0.375 -0.375 0.875q-0.109375 0.484375 -0.109375 1.03125q0 0.671875 0.140625 1.1875q0.15625 0.515625 0.421875 0.859375q0.28125 0.328125 0.671875 0.515625q0.40625 0.171875 0.90625 0.171875q0.5625 0 0.96875 -0.21875q0.421875 -0.234375 0.671875 -0.609375q0.265625 -0.375 0.375 -0.859375q0.125 -0.5 0.125 -1.046875zm8.261215 -2.640625q0.203125 0.25 0.3125 0.59375q0.125 0.34375 0.125 0.734375q0 0.578125 -0.21875 1.046875q-0.203125 0.46875 -0.59376526 0.8125q-0.375 0.328125 -0.90625 0.515625q-0.53125 0.1875 -1.171875 0.1875q-0.453125 0 -0.859375 -0.09375q-0.40625 -0.09375 -0.640625 -0.25q-0.140625 0.203125 -0.234375 0.390625q-0.09375 0.1875 -0.09375 0.40625q0 0.28125 0.265625 0.46875q0.265625 0.1875 0.71875 0.203125l1.921875 0.0625q0.546875 0.015625 1.015625 0.140625q0.46876526 0.125 0.79689026 0.359375q0.34375 0.234375 0.53125 0.578125q0.1875 0.34375 0.1875 0.796875q0 0.5 -0.21875 0.9375q-0.21875 0.4375 -0.65625 0.765625q-0.4375 0.34375 -1.1250153 0.53125q-0.6875 0.203125 -1.625 0.203125q-0.890625 0 -1.515625 -0.140625q-0.625 -0.140625 -1.03125 -0.40625q-0.390625 -0.25 -0.578125 -0.59375q-0.1875 -0.34375 -0.1875 -0.765625q0 -0.53125 0.25 -0.9375q0.25 -0.40625 0.765625 -0.78125q-0.1875 -0.078125 -0.328125 -0.203125q-0.140625 -0.140625 -0.234375 -0.296875q-0.078125 -0.15625 -0.125 -0.328125q-0.046875 -0.1875 -0.046875 -0.359375q0 -0.46875 0.21875 -0.859375q0.234375 -0.40625 0.546875 -0.75q-0.140625 -0.171875 -0.25 -0.328125q-0.109375 -0.171875 -0.1875 -0.359375q-0.078125 -0.1875 -0.125 -0.390625q-0.03125 -0.21875 -0.03125 -0.5q0 -0.578125 0.203125 -1.046875q0.21875 -0.46875 0.59375 -0.796875q0.375 -0.34375 0.90625 -0.53125q0.53125 -0.1875 1.171875 -0.1875q0.28125 0 0.53125 0.046875q0.25 0.03125 0.4375 0.078125l2.6562653 0l0 1.046875l-1.171875 0zm-4.4218903 7.375q0 0.515625 0.53125 0.75q0.546875 0.25 1.515625 0.25q0.609375 0 1.015625 -0.109375q0.421875 -0.109375 0.671875 -0.296875q0.25 -0.171875 0.359375 -0.40625q0.10939026 -0.234375 0.10939026 -0.46875q0 -0.453125 -0.37501526 -0.671875q-0.359375 -0.203125 -1.109375 -0.234375l-1.921875 -0.078125q-0.234375 0.171875 -0.390625 0.3125q-0.15625 0.15625 -0.25 0.3125q-0.09375 0.171875 -0.125 0.328125q-0.03125 0.15625 -0.03125 0.3125zm0.390625 -6.015625q0 0.359375 0.109375 0.65625q0.125 0.28125 0.328125 0.484375q0.21875 0.203125 0.5 0.328125q0.296875 0.109375 0.640625 0.109375q0.390625 0 0.6875 -0.125q0.296875 -0.140625 0.484375 -0.359375q0.203125 -0.21875 0.3125 -0.5q0.109375 -0.28125 0.109375 -0.59375q0 -0.34375 -0.125 -0.640625q-0.109375 -0.296875 -0.328125 -0.5q-0.203125 -0.203125 -0.5 -0.3125q-0.28125 -0.125 -0.640625 -0.125q-0.375 0 -0.671875 0.140625q-0.296875 0.125 -0.5 0.34375q-0.203125 0.21875 -0.3125 0.5q-0.09375 0.28125 -0.09375 0.59375zm11.198715 8.03125q-3.375 -3.125 -3.375 -6.921875q0 -0.875 0.171875 -1.75q0.1875 -0.890625 0.578125 -1.78125q0.40625 -0.890625 1.0625 -1.765625q0.65625 -0.890625 1.59375 -1.765625l0.734375 0.75q-2.84375 2.8125 -2.84375 6.21875q0 1.703125 0.71875 3.28125q0.71875 1.5625 2.125 2.953125l-0.765625 0.78125zm9.620575 -6.140625q0 0.71875 -0.3125 1.3125q-0.296875 0.578125 -0.84375 1.0q-0.53125 0.40625 -1.265625 0.640625q-0.734375 0.234375 -1.578125 0.234375q-0.21875 0 -0.46875 -0.015625q-0.234375 0 -0.484375 -0.015625q-0.234375 -0.015625 -0.46875 -0.046875q-0.234375 -0.015625 -0.421875 -0.046875l0 -1.15625q0.40625 0.09375 0.90625 0.140625q0.515625 0.046875 1.03125 0.046875q0.59375 0 1.0625 -0.140625q0.46875 -0.140625 0.796875 -0.390625q0.328125 -0.265625 0.5 -0.640625q0.171875 -0.375 0.171875 -0.828125q0 -0.90625 -0.640625 -1.3125q-0.640625 -0.40625 -1.84375 -0.40625l-1.8125 0l0 -4.890625l5.15625 0l0 1.125l-3.953125 0l0 2.6875l0.84375 0q0.6875 0 1.328125 0.125q0.65625 0.125 1.15625 0.4375q0.515625 0.296875 0.828125 0.828125q0.3125 0.515625 0.3125 1.3125zm3.589325 -7.84375q3.375 3.125 3.375 6.953125q0 0.796875 -0.15625 1.65625q-0.15625 0.84375 -0.546875 1.734375q-0.390625 0.890625 -1.046875 1.796875q-0.65625 0.921875 -1.65625 1.84375l-0.734375 -0.75q1.421875 -1.421875 2.125 -2.953125q0.703125 -1.546875 0.703125 -3.234375q0 -3.484375 -2.828125 -6.265625l0.765625 -0.78125zm7.214325 12.40625q0.375 0.015625 0.71875 -0.0625q0.359375 -0.078125 0.625 -0.234375q0.265625 -0.15625 0.421875 -0.390625q0.171875 -0.234375 0.171875 -0.546875q0 -0.296875 -0.109375 -0.484375q-0.109375 -0.203125 -0.25 -0.359375q-0.125 -0.15625 -0.234375 -0.34375q-0.09375 -0.1875 -0.09375 -0.484375q0 -0.15625 0.046875 -0.328125q0.0625 -0.171875 0.1875 -0.3125q0.125 -0.140625 0.3125 -0.21875q0.1875 -0.09375 0.4375 -0.09375q0.265625 0 0.5 0.109375q0.234375 0.109375 0.40625 0.328125q0.1875 0.21875 0.296875 0.546875q0.109375 0.328125 0.109375 0.78125q0 0.59375 -0.234375 1.15625q-0.21875 0.5625 -0.671875 1.0q-0.4375 0.4375 -1.109375 0.6875q-0.65625 0.25 -1.53125 0.25l0 -1.0zm2.296875 -8.984375q0.21875 0 0.421875 0.09375q0.21875 0.09375 0.359375 0.25q0.15625 0.140625 0.25 0.359375q0.09375 0.203125 0.09375 0.421875q0 0.234375 -0.09375 0.4375q-0.09375 0.203125 -0.25 0.359375q-0.140625 0.15625 -0.359375 0.25q-0.203125 0.078125 -0.421875 0.078125q-0.234375 0 -0.4375 -0.078125q-0.203125 -0.09375 -0.359375 -0.25q-0.15625 -0.15625 -0.25 -0.359375q-0.078125 -0.203125 -0.078125 -0.4375q0 -0.21875 0.078125 -0.421875q0.09375 -0.21875 0.25 -0.359375q0.15625 -0.15625 0.359375 -0.25q0.203125 -0.09375 0.4375 -0.09375z" fill-rule="nonzero"></path><path fill="#666666" d="m338.98438 297.80316l241.54333 0l0 4.598419l-241.54333 0z" fill-rule="nonzero"></path><path stroke="#000000" stroke-width="1.0" stroke-linejoin="round" stroke-linecap="butt" d="m338.98438 297.80316l241.54333 0l0 4.598419l-241.54333 0z" fill-rule="nonzero"></path><path fill="#f3f3f3" d="m358.08237 249.07874l203.37009 0l0 36.850403l-203.37009 0z" fill-rule="nonzero"></path><path stroke="#000000" stroke-width="1.0" stroke-linejoin="round" stroke-linecap="butt" d="m358.08237 249.07874l203.37009 0l0 36.850403l-203.37009 0z" fill-rule="nonzero"></path><path fill="#000000" d="m425.89893 272.58392l0 -5.28125q0 -0.34375 -0.03125 -0.5625q-0.03125 -0.21875 -0.09375 -0.34375q-0.046875 -0.140625 -0.125 -0.1875q-0.078125 -0.046875 -0.203125 -0.046875q-0.15625 0 -0.28125 0.09375q-0.125 0.078125 -0.265625 0.28125q-0.140625 0.1875 -0.3125 0.515625q-0.171875 0.328125 -0.40625 0.8125l0 4.71875l-1.171875 0l0 -5.140625q0 -0.40625 -0.03125 -0.65625q-0.015625 -0.25 -0.078125 -0.390625q-0.046875 -0.140625 -0.140625 -0.1875q-0.078125 -0.046875 -0.203125 -0.046875q-0.140625 0 -0.265625 0.078125q-0.109375 0.0625 -0.25 0.265625q-0.140625 0.1875 -0.3125 0.515625q-0.171875 0.328125 -0.421875 0.84375l0 4.71875l-1.171875 0l0 -7.359375l0.984375 0l0.046875 1.40625q0.1875 -0.421875 0.359375 -0.703125q0.1875 -0.296875 0.375 -0.46875q0.203125 -0.1875 0.40625 -0.265625q0.21875 -0.09375 0.484375 -0.09375q0.59375 0 0.90625 0.390625q0.3125 0.390625 0.3125 1.203125q0.171875 -0.390625 0.34375 -0.6875q0.171875 -0.296875 0.359375 -0.484375q0.1875 -0.203125 0.421875 -0.3125q0.234375 -0.109375 0.546875 -0.109375q1.390625 0 1.390625 2.125l0 5.359375l-1.171875 0zm7.526825 0l-0.03125 -0.984375q-0.59375 0.59375 -1.21875 0.859375q-0.609375 0.25 -1.296875 0.25q-0.625 0 -1.078125 -0.15625q-0.4375 -0.15625 -0.734375 -0.4375q-0.28125 -0.28125 -0.421875 -0.65625q-0.140625 -0.390625 -0.140625 -0.84375q0 -1.09375 0.828125 -1.71875q0.828125 -0.640625 2.4375 -0.640625l1.515625 0l0 -0.640625q0 -0.65625 -0.421875 -1.046875q-0.40625 -0.390625 -1.265625 -0.390625q-0.625 0 -1.234375 0.140625q-0.59375 0.140625 -1.234375 0.40625l0 -1.15625q0.234375 -0.09375 0.53125 -0.171875q0.296875 -0.078125 0.625 -0.140625q0.328125 -0.078125 0.6875 -0.109375q0.359375 -0.046875 0.734375 -0.046875q0.65625 0 1.1875 0.15625q0.546875 0.140625 0.90625 0.4375q0.375 0.296875 0.5625 0.75q0.203125 0.453125 0.203125 1.078125l0 5.0625l-1.140625 0zm-0.140625 -3.34375l-1.609375 0q-0.484375 0 -0.828125 0.09375q-0.34375 0.09375 -0.5625 0.265625q-0.21875 0.171875 -0.328125 0.421875q-0.09375 0.25 -0.09375 0.5625q0 0.203125 0.0625 0.40625q0.0625 0.1875 0.203125 0.34375q0.15625 0.140625 0.390625 0.234375q0.234375 0.078125 0.5625 0.078125q0.4375 0 1.0 -0.265625q0.578125 -0.265625 1.203125 -0.84375l0 -1.296875zm5.97995 -2.953125l-2.171875 0l0 -1.0625l3.46875 0l0 6.296875l2.1875 0l0 1.0625l-5.890625 0l0 -1.0625l2.40625 0l0 -5.234375zm0.453125 -4.140625q0.21875 0 0.390625 0.078125q0.1875 0.078125 0.3125 0.21875q0.140625 0.140625 0.21875 0.328125q0.078125 0.171875 0.078125 0.375q0 0.203125 -0.078125 0.390625q-0.078125 0.1875 -0.21875 0.328125q-0.125 0.140625 -0.3125 0.21875q-0.171875 0.0625 -0.390625 0.0625q-0.21875 0 -0.40625 -0.0625q-0.171875 -0.078125 -0.3125 -0.21875q-0.125 -0.140625 -0.203125 -0.328125q-0.078125 -0.1875 -0.078125 -0.390625q0 -0.203125 0.078125 -0.375q0.078125 -0.1875 0.203125 -0.328125q0.140625 -0.140625 0.3125 -0.21875q0.1875 -0.078125 0.40625 -0.078125zm5.10495 3.078125l1.140625 0l0.046875 1.1875q0.328125 -0.375 0.625 -0.625q0.296875 -0.25 0.578125 -0.40625q0.296875 -0.15625 0.59375 -0.21875q0.296875 -0.0625 0.625 -0.0625q1.140625 0 1.71875 0.671875q0.578125 0.671875 0.578125 2.015625l0 4.796875l-1.265625 0l0 -4.6875q0 -0.875 -0.328125 -1.28125q-0.328125 -0.421875 -0.953125 -0.421875q-0.234375 0 -0.46875 0.078125q-0.21875 0.0625 -0.46875 0.234375q-0.234375 0.171875 -0.515625 0.46875q-0.28125 0.296875 -0.625 0.734375l0 4.875l-1.28125 0l0 -7.359375zm12.464325 10.4375q-3.375 -3.125 -3.375 -6.921875q0 -0.875 0.171875 -1.75q0.1875 -0.890625 0.578125 -1.78125q0.40625 -0.890625 1.0625 -1.765625q0.65625 -0.890625 1.59375 -1.765625l0.734375 0.75q-2.84375 2.8125 -2.84375 6.21875q0 1.703125 0.71875 3.28125q0.71875 1.5625 2.125 2.953125l-0.765625 0.78125zm9.683075 -5.984375q0 0.625 -0.265625 1.1875q-0.25 0.546875 -0.765625 0.96875q-0.515625 0.40625 -1.296875 0.640625q-0.765625 0.234375 -1.796875 0.234375q-0.578125 0 -1.03125 -0.03125q-0.453125 -0.03125 -0.84375 -0.09375l0 -1.140625q0.453125 0.078125 0.953125 0.125q0.515625 0.046875 1.03125 0.046875q0.71875 0 1.21875 -0.125q0.515625 -0.140625 0.84375 -0.375q0.328125 -0.25 0.46875 -0.59375q0.140625 -0.34375 0.140625 -0.765625q0 -0.40625 -0.171875 -0.6875q-0.171875 -0.296875 -0.5 -0.5q-0.3125 -0.203125 -0.765625 -0.296875q-0.4375 -0.09375 -0.953125 -0.09375l-1.09375 0l0 -1.046875l1.109375 0q0.421875 0 0.78125 -0.109375q0.359375 -0.125 0.609375 -0.328125q0.25 -0.21875 0.375 -0.53125q0.140625 -0.3125 0.140625 -0.703125q0 -0.765625 -0.46875 -1.109375q-0.46875 -0.359375 -1.375 -0.359375q-0.484375 0 -1.0 0.09375q-0.5 0.09375 -1.09375 0.28125l0 -1.109375q0.25 -0.09375 0.53125 -0.15625q0.28125 -0.078125 0.5625 -0.125q0.28125 -0.046875 0.5625 -0.0625q0.28125 -0.03125 0.53125 -0.03125q0.765625 0 1.34375 0.171875q0.578125 0.15625 0.96875 0.46875q0.390625 0.296875 0.578125 0.75q0.203125 0.4375 0.203125 0.984375q0 0.8125 -0.421875 1.375q-0.421875 0.5625 -1.15625 0.890625q0.375 0.046875 0.734375 0.234375q0.375 0.171875 0.65625 0.453125q0.296875 0.265625 0.46875 0.640625q0.1875 0.375 0.1875 0.828125zm2.60495 4.40625q0.359375 0.015625 0.703125 -0.0625q0.359375 -0.078125 0.625 -0.234375q0.28125 -0.15625 0.4375 -0.390625q0.15625 -0.234375 0.15625 -0.546875q0 -0.296875 -0.109375 -0.484375q-0.09375 -0.203125 -0.234375 -0.359375q-0.125 -0.15625 -0.234375 -0.34375q-0.109375 -0.1875 -0.109375 -0.484375q0 -0.15625 0.0625 -0.328125q0.0625 -0.171875 0.171875 -0.3125q0.125 -0.140625 0.3125 -0.21875q0.1875 -0.09375 0.453125 -0.09375q0.25 0 0.484375 0.109375q0.234375 0.109375 0.40625 0.328125q0.1875 0.21875 0.296875 0.546875q0.109375 0.328125 0.109375 0.78125q0 0.59375 -0.234375 1.15625q-0.21875 0.5625 -0.65625 1.0q-0.4375 0.4375 -1.109375 0.6875q-0.65625 0.25 -1.53125 0.25l0 -1.0zm13.6987 -1.5l-6.3125 0l0 -1.140625l2.46875 -2.46875q0.609375 -0.59375 0.984375 -1.03125q0.390625 -0.4375 0.59375 -0.796875q0.21875 -0.375 0.296875 -0.6875q0.078125 -0.328125 0.078125 -0.703125q0 -0.34375 -0.109375 -0.65625q-0.09375 -0.328125 -0.296875 -0.5625q-0.1875 -0.25 -0.5 -0.390625q-0.3125 -0.140625 -0.75 -0.140625q-0.609375 0 -1.109375 0.28125q-0.5 0.265625 -0.921875 0.6875l-0.703125 -0.828125q0.546875 -0.578125 1.25 -0.921875q0.703125 -0.34375 1.640625 -0.34375q0.640625 0 1.15625 0.1875q0.53125 0.1875 0.90625 0.546875q0.390625 0.359375 0.59375 0.890625q0.21875 0.515625 0.21875 1.15625q0 0.5625 -0.15625 1.03125q-0.140625 0.46875 -0.4375 0.9375q-0.296875 0.453125 -0.75 0.953125q-0.453125 0.5 -1.0625 1.09375l-1.734375 1.6875l4.65625 0l0 1.21875zm3.3392944 -10.90625q3.375 3.125 3.375 6.953125q0 0.796875 -0.15625 1.65625q-0.15625 0.84375 -0.546875 1.734375q-0.390625 0.890625 -1.046875 1.796875q-0.65625 0.921875 -1.65625 1.84375l-0.7343445 -0.75q1.4218445 -1.421875 2.1249695 -2.953125q0.703125 -1.546875 0.703125 -3.234375q0 -3.484375 -2.8280945 -6.265625l0.7655945 -0.78125zm7.214325 12.40625q0.375 0.015625 0.71875 -0.0625q0.359375 -0.078125 0.625 -0.234375q0.265625 -0.15625 0.421875 -0.390625q0.171875 -0.234375 0.171875 -0.546875q0 -0.296875 -0.109375 -0.484375q-0.109375 -0.203125 -0.25 -0.359375q-0.125 -0.15625 -0.234375 -0.34375q-0.09375 -0.1875 -0.09375 -0.484375q0 -0.15625 0.046875 -0.328125q0.0625 -0.171875 0.1875 -0.3125q0.125 -0.140625 0.3125 -0.21875q0.1875 -0.09375 0.4375 -0.09375q0.265625 0 0.5 0.109375q0.234375 0.109375 0.40625 0.328125q0.1875 0.21875 0.296875 0.546875q0.109375 0.328125 0.109375 0.78125q0 0.59375 -0.234375 1.15625q-0.21875 0.5625 -0.671875 1.0q-0.4375 0.4375 -1.109375 0.6875q-0.65625 0.25 -1.53125 0.25l0 -1.0zm2.296875 -8.984375q0.21875 0 0.421875 0.09375q0.21875 0.09375 0.359375 0.25q0.15625 0.140625 0.25 0.359375q0.09375 0.203125 0.09375 0.421875q0 0.234375 -0.09375 0.4375q-0.09375 0.203125 -0.25 0.359375q-0.140625 0.15625 -0.359375 0.25q-0.203125 0.078125 -0.421875 0.078125q-0.234375 0 -0.4375 -0.078125q-0.203125 -0.09375 -0.359375 -0.25q-0.15625 -0.15625 -0.25 -0.359375q-0.078125 -0.203125 -0.078125 -0.4375q0 -0.21875 0.078125 -0.421875q0.09375 -0.21875 0.25 -0.359375q0.15625 -0.15625 0.359375 -0.25q0.203125 -0.09375 0.4375 -0.09375z" fill-rule="nonzero"></path><path fill="#666666" d="m651.4281 297.80316l241.54327 0l0 4.598419l-241.54327 0z" fill-rule="nonzero"></path><path stroke="#000000" stroke-width="1.0" stroke-linejoin="round" stroke-linecap="butt" d="m651.4281 297.80316l241.54327 0l0 4.598419l-241.54327 0z" fill-rule="nonzero"></path><path fill="#000000" fill-opacity="0.0" d="m561.4514 39.401573l12.141785 0l0 -6.629921l6.629883 6.629921l-6.629883 6.629925l0 -6.629925l-12.141785 0z" fill-rule="nonzero"></path><path stroke="#000000" stroke-width="1.0" stroke-linejoin="round" stroke-linecap="butt" d="m561.4514 39.401573l12.141785 0l0 -6.629921l6.629883 6.629921l-6.629883 6.629925l0 -6.629925l-12.141785 0z" fill-rule="nonzero"></path><path fill="#000000" fill-opacity="0.0" d="m575.5512 20.351627l25.417297 0l0 22.929134l-25.417297 0z" fill-rule="nonzero"></path><path fill="#000000" d="m591.69183 40.369125q0 0.71875 -0.3125 1.3125q-0.296875 0.578125 -0.84375 1.0q-0.53125 0.40625 -1.265625 0.640625q-0.734375 0.234375 -1.578125 0.234375q-0.21875 0 -0.46875 -0.015625q-0.234375 0 -0.484375 -0.015625q-0.234375 -0.015625 -0.46875 -0.046875q-0.234375 -0.015625 -0.421875 -0.046875l0 -1.15625q0.40625 0.09375 0.90625 0.140625q0.515625 0.046875 1.03125 0.046875q0.59375 0 1.0625 -0.140625q0.46875 -0.140625 0.796875 -0.390625q0.328125 -0.265625 0.5 -0.640625q0.171875 -0.375 0.171875 -0.828125q0 -0.90625 -0.640625 -1.3125q-0.640625 -0.40625 -1.84375 -0.40625l-1.8125 0l0 -4.890625l5.15625 0l0 1.125l-3.953125 0l0 2.6875l0.84375 0q0.6875 0 1.328125 0.125q0.65625 0.125 1.15625 0.4375q0.515625 0.296875 0.828125 0.828125q0.3125 0.515625 0.3125 1.3125z" fill-rule="nonzero"></path><path fill="#000000" fill-opacity="0.0" d="m255.09973 200.35425l25.417328 0l0 22.929138l-25.417328 0z" fill-rule="nonzero"></path><path fill="#000000" fill-opacity="0.0" d="m561.4514 268.1286l12.141785 0l0 -6.6299133l6.629883 6.6299133l-6.629883 6.629944l0 -6.629944l-12.141785 0z" fill-rule="nonzero"></path><path stroke="#000000" stroke-width="1.0" stroke-linejoin="round" stroke-linecap="butt" d="m561.4514 268.1286l12.141785 0l0 -6.6299133l6.629883 6.6299133l-6.629883 6.629944l0 -6.629944l-12.141785 0z" fill-rule="nonzero"></path><path fill="#000000" fill-opacity="0.0" d="m575.5512 249.07866l25.417297 0l0 22.929123l-25.417297 0z" fill-rule="nonzero"></path><path fill="#000000" d="m591.69183 269.09616q0 0.71875 -0.3125 1.3125q-0.296875 0.578125 -0.84375 1.0q-0.53125 0.40625 -1.265625 0.640625q-0.734375 0.234375 -1.578125 0.234375q-0.21875 0 -0.46875 -0.015625q-0.234375 0 -0.484375 -0.015625q-0.234375 -0.015625 -0.46875 -0.046875q-0.234375 -0.015625 -0.421875 -0.046875l0 -1.15625q0.40625 0.09375 0.90625 0.140625q0.515625 0.046875 1.03125 0.046875q0.59375 0 1.0625 -0.140625q0.46875 -0.140625 0.796875 -0.390625q0.328125 -0.265625 0.5 -0.640625q0.171875 -0.375 0.171875 -0.828125q0 -0.90625 -0.640625 -1.3125q-0.640625 -0.40625 -1.84375 -0.40625l-1.8125 0l0 -4.890625l5.15625 0l0 1.125l-3.953125 0l0 2.6875l0.84375 0q0.6875 0 1.328125 0.125q0.65625 0.125 1.15625 0.4375q0.515625 0.296875 0.828125 0.828125q0.3125 0.515625 0.3125 1.3125z" fill-rule="nonzero"></path><path fill="#000000" fill-opacity="0.0" d="m241.0 219.4042l12.141739 0l0 -6.6299286l6.6299286 6.6299286l-6.6299286 6.6299133l0 -6.6299133l-12.141739 0z" fill-rule="nonzero"></path><path stroke="#000000" stroke-width="1.0" stroke-linejoin="round" stroke-linecap="butt" d="m241.0 219.4042l12.141739 0l0 -6.6299286l6.6299286 6.6299286l-6.6299286 6.6299133l0 -6.6299133l-12.141739 0z" fill-rule="nonzero"></path><path fill="#000000" fill-opacity="0.0" d="m252.25722 201.77525l81.82677 0l0 22.929123l-81.82677 0z" fill-rule="nonzero"></path><path fill="#000000" d="m266.9291 222.29526l-0.921875 0l-0.03125 -0.953125q-0.265625 0.3125 -0.5 0.515625q-0.234375 0.203125 -0.46875 0.328125q-0.234375 0.109375 -0.484375 0.15625q-0.234375 0.0625 -0.5 0.0625q-0.90625 0 -1.375 -0.53125q-0.453125 -0.546875 -0.453125 -1.625l0 -3.84375l1.015625 0l0 3.765625q0 1.359375 1.03125 1.359375q0.1875 0 0.359375 -0.046875q0.171875 -0.0625 0.375 -0.203125q0.203125 -0.140625 0.421875 -0.375q0.21875 -0.234375 0.5 -0.59375l0 -3.90625l1.03125 0l0 5.890625zm1.8632812 -5.890625l0.90625 0l0.046875 0.953125q0.25 -0.296875 0.484375 -0.5q0.25 -0.203125 0.484375 -0.328125q0.234375 -0.125 0.46875 -0.171875q0.234375 -0.046875 0.5 -0.046875q0.90625 0 1.375 0.53125q0.46875 0.53125 0.46875 1.609375l0 3.84375l-1.03125 0l0 -3.75q0 -0.703125 -0.265625 -1.03125q-0.25 -0.328125 -0.75 -0.328125q-0.1875 0 -0.375 0.0625q-0.171875 0.046875 -0.375 0.1875q-0.1875 0.140625 -0.421875 0.375q-0.21875 0.234375 -0.5 0.578125l0 3.90625l-1.015625 0l0 -5.890625zm6.3007812 3.078125q0 -0.75 0.203125 -1.328125q0.203125 -0.59375 0.578125 -0.984375q0.390625 -0.40625 0.90625 -0.609375q0.53125 -0.21875 1.1875 -0.21875q0.28125 0 0.546875 0.03125q0.28125 0.03125 0.546875 0.109375l0 -2.46875l1.015625 0l0 8.28125l-0.90625 0l-0.03125 -1.109375q-0.4375 0.609375 -0.9375 0.921875q-0.484375 0.296875 -1.078125 0.296875q-0.5 0 -0.890625 -0.203125q-0.375 -0.21875 -0.640625 -0.59375q-0.25 -0.390625 -0.375 -0.921875q-0.125 -0.546875 -0.125 -1.203125zm1.046875 -0.078125q0 1.078125 0.3125 1.609375q0.3125 0.515625 0.890625 0.515625q0.375 0 0.796875 -0.34375q0.4375 -0.34375 0.921875 -1.03125l0 -2.734375q-0.25 -0.109375 -0.5625 -0.171875q-0.296875 -0.0625 -0.59375 -0.0625q-0.84375 0 -1.3125 0.546875q-0.453125 0.53125 -0.453125 1.671875zm10.816406 -0.359375q0 0.21875 -0.015625 0.359375q0 0.140625 0 0.28125l-4.140625 0q0 0.890625 0.5 1.375q0.515625 0.484375 1.453125 0.484375q0.265625 0 0.515625 -0.015625q0.265625 -0.015625 0.5 -0.046875q0.25 -0.046875 0.46875 -0.078125q0.21875 -0.046875 0.40625 -0.109375l0 0.84375q-0.421875 0.109375 -0.953125 0.1875q-0.515625 0.078125 -1.078125 0.078125q-0.75 0 -1.296875 -0.203125q-0.546875 -0.21875 -0.90625 -0.59375q-0.34375 -0.390625 -0.515625 -0.953125q-0.15625 -0.578125 -0.15625 -1.296875q0 -0.609375 0.171875 -1.15625q0.1875 -0.5625 0.53125 -0.984375q0.34375 -0.421875 0.828125 -0.65625q0.5 -0.25 1.140625 -0.25q0.609375 0 1.078125 0.1875q0.484375 0.1875 0.8125 0.546875q0.328125 0.359375 0.484375 0.875q0.171875 0.5 0.171875 1.125zm-1.0625 -0.15625q0.015625 -0.390625 -0.078125 -0.703125q-0.09375 -0.328125 -0.296875 -0.5625q-0.1875 -0.234375 -0.484375 -0.359375q-0.28125 -0.140625 -0.671875 -0.140625q-0.328125 0 -0.609375 0.125q-0.28125 0.125 -0.484375 0.359375q-0.1875 0.234375 -0.3125 0.5625q-0.125 0.328125 -0.15625 0.71875l3.09375 0zm7.9101562 -3.921875q-0.796875 -0.171875 -1.375 -0.171875q-1.375 0 -1.375 1.4375l0 1.03125l2.578125 0l0 0.859375l-2.578125 0l0 4.171875l-1.046875 0l0 -4.171875l-1.890625 0l0 -0.859375l1.890625 0l0 -0.96875q0 -2.34375 2.453125 -2.34375q0.609375 0 1.34375 0.140625l0 0.875zm-6.15625 1.4375l0 0zm9.535156 0.84375l-1.734375 0l0 -0.84375l2.765625 0l0 5.046875l1.75 0l0 0.84375l-4.703125 0l0 -0.84375l1.921875 0l0 -4.203125zm0.359375 -3.296875q0.171875 0 0.3125 0.0625q0.15625 0.046875 0.265625 0.171875q0.109375 0.109375 0.171875 0.25q0.0625 0.140625 0.0625 0.3125q0 0.15625 -0.0625 0.3125q-0.0625 0.140625 -0.171875 0.25q-0.109375 0.109375 -0.265625 0.171875q-0.140625 0.0625 -0.3125 0.0625q-0.171875 0 -0.3125 -0.0625q-0.140625 -0.0625 -0.25 -0.171875q-0.109375 -0.109375 -0.171875 -0.25q-0.0625 -0.15625 -0.0625 -0.3125q0 -0.171875 0.0625 -0.3125q0.0625 -0.140625 0.171875 -0.25q0.109375 -0.125 0.25 -0.171875q0.140625 -0.0625 0.3125 -0.0625zm4.2382812 2.453125l0.90625 0l0.046875 0.953125q0.25 -0.296875 0.484375 -0.5q0.25 -0.203125 0.484375 -0.328125q0.234375 -0.125 0.46875 -0.171875q0.234375 -0.046875 0.5 -0.046875q0.90625 0 1.375 0.53125q0.46875 0.53125 0.46875 1.609375l0 3.84375l-1.03125 0l0 -3.75q0 -0.703125 -0.265625 -1.03125q-0.25 -0.328125 -0.75 -0.328125q-0.1875 0 -0.375 0.0625q-0.171875 0.046875 -0.375 0.1875q-0.1875 0.140625 -0.421875 0.375q-0.21875 0.234375 -0.5 0.578125l0 3.90625l-1.015625 0l0 -5.890625zm11.566406 2.640625q0 0.21875 -0.015625 0.359375q0 0.140625 0 0.28125l-4.140625 0q0 0.890625 0.5 1.375q0.515625 0.484375 1.453125 0.484375q0.265625 0 0.515625 -0.015625q0.265625 -0.015625 0.5 -0.046875q0.25 -0.046875 0.46875 -0.078125q0.21875 -0.046875 0.40625 -0.109375l0 0.84375q-0.421875 0.109375 -0.953125 0.1875q-0.515625 0.078125 -1.078125 0.078125q-0.75 0 -1.296875 -0.203125q-0.546875 -0.21875 -0.90625 -0.59375q-0.34375 -0.390625 -0.515625 -0.953125q-0.15625 -0.578125 -0.15625 -1.296875q0 -0.609375 0.171875 -1.15625q0.1875 -0.5625 0.53125 -0.984375q0.34375 -0.421875 0.828125 -0.65625q0.5 -0.25 1.140625 -0.25q0.609375 0 1.078125 0.1875q0.484375 0.1875 0.8125 0.546875q0.328125 0.359375 0.484375 0.875q0.171875 0.5 0.171875 1.125zm-1.0625 -0.15625q0.015625 -0.390625 -0.078125 -0.703125q-0.09375 -0.328125 -0.296875 -0.5625q-0.1875 -0.234375 -0.484375 -0.359375q-0.28125 -0.140625 -0.671875 -0.140625q-0.328125 0 -0.609375 0.125q-0.28125 0.125 -0.484375 0.359375q-0.1875 0.234375 -0.3125 0.5625q-0.125 0.328125 -0.15625 0.71875l3.09375 0zm2.3945312 0.59375q0 -0.75 0.203125 -1.328125q0.203125 -0.59375 0.578125 -0.984375q0.390625 -0.40625 0.90625 -0.609375q0.53125 -0.21875 1.1875 -0.21875q0.28125 0 0.546875 0.03125q0.28125 0.03125 0.546875 0.109375l0 -2.46875l1.015625 0l0 8.28125l-0.90625 0l-0.03125 -1.109375q-0.4375 0.609375 -0.9375 0.921875q-0.484375 0.296875 -1.078125 0.296875q-0.5 0 -0.890625 -0.203125q-0.375 -0.21875 -0.640625 -0.59375q-0.25 -0.390625 -0.375 -0.921875q-0.125 -0.546875 -0.125 -1.203125zm1.046875 -0.078125q0 1.078125 0.3125 1.609375q0.3125 0.515625 0.890625 0.515625q0.375 0 0.796875 -0.34375q0.4375 -0.34375 0.921875 -1.03125l0 -2.734375q-0.25 -0.109375 -0.5625 -0.171875q-0.296875 -0.0625 -0.59375 -0.0625q-0.84375 0 -1.3125 0.546875q-0.453125 0.53125 -0.453125 1.671875z" fill-rule="nonzero"></path></g></svg>

